<svg xmlns="http://www.w3.org/2000/svg" width="960" height="560" viewBox="0 0 960 560"><style>text{font-family:Arial,sans-serif;font-size:12px;} .title{font-size:16px;font-weight:bold;}</style><rect width="100%" height="100%" fill="white"/><text x="480.0" y="30.0" class="title" text-anchor="middle">Streaming ping-pong latency</text><text x="480.0" y="540.0" text-anchor="middle">Payload size</text><text x="15" y="280.0" transform="rotate(-90 15,280.0)" text-anchor="middle">Avg latency (µs)</text><line x1="80.0" y1="490.0" x2="920.0" y2="490.0" stroke="black"/><line x1="80.0" y1="490.0" x2="80.0" y2="60.0" stroke="black"/><line x1="80.0" y1="490.0" x2="80.0" y2="496.0" stroke="black"/><text x="80.0" y="510.0" text-anchor="middle">0 B</text><line x1="80.0" y1="490.0" x2="80.0" y2="60.0" stroke="#dddddd"/><line x1="280.3" y1="490.0" x2="280.3" y2="496.0" stroke="black"/><text x="280.3" y="510.0" text-anchor="middle">488.3 KiB</text><line x1="280.3" y1="490.0" x2="280.3" y2="60.0" stroke="#dddddd"/><line x1="480.5" y1="490.0" x2="480.5" y2="496.0" stroke="black"/><text x="480.5" y="510.0" text-anchor="middle">976.6 KiB</text><line x1="480.5" y1="490.0" x2="480.5" y2="60.0" stroke="#dddddd"/><line x1="680.8" y1="490.0" x2="680.8" y2="496.0" stroke="black"/><text x="680.8" y="510.0" text-anchor="middle">1.4 MiB</text><line x1="680.8" y1="490.0" x2="680.8" y2="60.0" stroke="#dddddd"/><line x1="881.1" y1="490.0" x2="881.1" y2="496.0" stroke="black"/><text x="881.1" y="510.0" text-anchor="middle">1.9 MiB</text><line x1="881.1" y1="490.0" x2="881.1" y2="60.0" stroke="#dddddd"/><line x1="1081.4" y1="490.0" x2="1081.4" y2="496.0" stroke="black"/><text x="1081.4" y="510.0" text-anchor="middle">2.4 MiB</text><line x1="1081.4" y1="490.0" x2="1081.4" y2="60.0" stroke="#dddddd"/><line x1="74.0" y1="490.0" x2="80.0" y2="490.0" stroke="black"/><text x="72.0" y="494.0" text-anchor="end">0.00</text><line x1="80.0" y1="490.0" x2="920.0" y2="490.0" stroke="#ededed"/><line x1="74.0" y1="411.6" x2="80.0" y2="411.6" stroke="black"/><text x="72.0" y="415.6" text-anchor="end">2.0k</text><line x1="80.0" y1="411.6" x2="920.0" y2="411.6" stroke="#ededed"/><line x1="74.0" y1="333.1" x2="80.0" y2="333.1" stroke="black"/><text x="72.0" y="337.1" text-anchor="end">4.0k</text><line x1="80.0" y1="333.1" x2="920.0" y2="333.1" stroke="#ededed"/><line x1="74.0" y1="254.7" x2="80.0" y2="254.7" stroke="black"/><text x="72.0" y="258.7" text-anchor="end">6.0k</text><line x1="80.0" y1="254.7" x2="920.0" y2="254.7" stroke="#ededed"/><line x1="74.0" y1="176.3" x2="80.0" y2="176.3" stroke="black"/><text x="72.0" y="180.3" text-anchor="end">8.0k</text><line x1="80.0" y1="176.3" x2="920.0" y2="176.3" stroke="#ededed"/><line x1="74.0" y1="97.8" x2="80.0" y2="97.8" stroke="black"/><text x="72.0" y="101.8" text-anchor="end">10.0k</text><line x1="80.0" y1="97.8" x2="920.0" y2="97.8" stroke="#ededed"/><line x1="74.0" y1="19.4" x2="80.0" y2="19.4" stroke="black"/><text x="72.0" y="23.4" text-anchor="end">12.0k</text><line x1="80.0" y1="19.4" x2="920.0" y2="19.4" stroke="#ededed"/><polyline fill="none" stroke="#d62728" stroke-width="2" points="80.0,488.9 80.0,489.1 80.4,489.2 81.6,488.6 86.6,487.7 106.2,482.5 185.0,448.2 290.0,415.3 500.0,334.3 920.0,218.9 "/><circle cx="80.0" cy="488.9" r="3" fill="#d62728"/><circle cx="80.0" cy="489.1" r="3" fill="#d62728"/><circle cx="80.4" cy="489.2" r="3" fill="#d62728"/><circle cx="81.6" cy="488.6" r="3" fill="#d62728"/><circle cx="86.6" cy="487.7" r="3" fill="#d62728"/><circle cx="106.2" cy="482.5" r="3" fill="#d62728"/><circle cx="185.0" cy="448.2" r="3" fill="#d62728"/><circle cx="290.0" cy="415.3" r="3" fill="#d62728"/><circle cx="500.0" cy="334.3" r="3" fill="#d62728"/><circle cx="920.0" cy="218.9" r="3" fill="#d62728"/><polyline fill="none" stroke="#1f77b4" stroke-width="2" points="80.0,488.2 80.0,488.2 80.4,488.0 81.6,487.1 86.6,486.1 106.2,481.4 185.0,454.9 290.0,423.8 500.0,325.6 920.0,60.0 "/><circle cx="80.0" cy="488.2" r="3" fill="#1f77b4"/><circle cx="80.0" cy="488.2" r="3" fill="#1f77b4"/><circle cx="80.4" cy="488.0" r="3" fill="#1f77b4"/><circle cx="81.6" cy="487.1" r="3" fill="#1f77b4"/><circle cx="86.6" cy="486.1" r="3" fill="#1f77b4"/><circle cx="106.2" cy="481.4" r="3" fill="#1f77b4"/><circle cx="185.0" cy="454.9" r="3" fill="#1f77b4"/><circle cx="290.0" cy="423.8" r="3" fill="#1f77b4"/><circle cx="500.0" cy="325.6" r="3" fill="#1f77b4"/><circle cx="920.0" cy="60.0" r="3" fill="#1f77b4"/><rect x="770.0" y="70.0" width="140" height="54.0" fill="white" stroke="#ccc"/><line x1="780.0" y1="85.0" x2="800.0" y2="85.0" stroke="#d62728" stroke-width="3"/><text x="810.0" y="88.0">shm</text><line x1="780.0" y1="107.0" x2="800.0" y2="107.0" stroke="#1f77b4" stroke-width="3"/><text x="810.0" y="110.0">tcp</text></svg>