<svg xmlns="http://www.w3.org/2000/svg" width="960" height="560" viewBox="0 0 960 560"><style>text{font-family:Arial,sans-serif;font-size:12px;} .title{font-size:16px;font-weight:bold;}</style><rect width="100%" height="100%" fill="white"/><text x="480.0" y="30.0" class="title" text-anchor="middle">Streaming throughput</text><text x="480.0" y="540.0" text-anchor="middle">Payload size</text><text x="15" y="280.0" transform="rotate(-90 15,280.0)" text-anchor="middle">Throughput (MiB/s)</text><line x1="80.0" y1="490.0" x2="920.0" y2="490.0" stroke="black"/><line x1="80.0" y1="490.0" x2="80.0" y2="60.0" stroke="black"/><line x1="80.0" y1="490.0" x2="80.0" y2="496.0" stroke="black"/><text x="80.0" y="510.0" text-anchor="middle">0 B</text><line x1="80.0" y1="490.0" x2="80.0" y2="60.0" stroke="#dddddd"/><line x1="280.3" y1="490.0" x2="280.3" y2="496.0" stroke="black"/><text x="280.3" y="510.0" text-anchor="middle">488.3 KiB</text><line x1="280.3" y1="490.0" x2="280.3" y2="60.0" stroke="#dddddd"/><line x1="480.5" y1="490.0" x2="480.5" y2="496.0" stroke="black"/><text x="480.5" y="510.0" text-anchor="middle">976.6 KiB</text><line x1="480.5" y1="490.0" x2="480.5" y2="60.0" stroke="#dddddd"/><line x1="680.8" y1="490.0" x2="680.8" y2="496.0" stroke="black"/><text x="680.8" y="510.0" text-anchor="middle">1.4 MiB</text><line x1="680.8" y1="490.0" x2="680.8" y2="60.0" stroke="#dddddd"/><line x1="881.1" y1="490.0" x2="881.1" y2="496.0" stroke="black"/><text x="881.1" y="510.0" text-anchor="middle">1.9 MiB</text><line x1="881.1" y1="490.0" x2="881.1" y2="60.0" stroke="#dddddd"/><line x1="1081.4" y1="490.0" x2="1081.4" y2="496.0" stroke="black"/><text x="1081.4" y="510.0" text-anchor="middle">2.4 MiB</text><line x1="1081.4" y1="490.0" x2="1081.4" y2="60.0" stroke="#dddddd"/><line x1="74.0" y1="490.0" x2="80.0" y2="490.0" stroke="black"/><text x="72.0" y="494.0" text-anchor="end">0.00</text><line x1="80.0" y1="490.0" x2="920.0" y2="490.0" stroke="#ededed"/><line x1="74.0" y1="424.0" x2="80.0" y2="424.0" stroke="black"/><text x="72.0" y="428.0" text-anchor="end">100</text><line x1="80.0" y1="424.0" x2="920.0" y2="424.0" stroke="#ededed"/><line x1="74.0" y1="358.1" x2="80.0" y2="358.1" stroke="black"/><text x="72.0" y="362.1" text-anchor="end">200</text><line x1="80.0" y1="358.1" x2="920.0" y2="358.1" stroke="#ededed"/><line x1="74.0" y1="292.1" x2="80.0" y2="292.1" stroke="black"/><text x="72.0" y="296.1" text-anchor="end">300</text><line x1="80.0" y1="292.1" x2="920.0" y2="292.1" stroke="#ededed"/><line x1="74.0" y1="226.1" x2="80.0" y2="226.1" stroke="black"/><text x="72.0" y="230.1" text-anchor="end">400</text><line x1="80.0" y1="226.1" x2="920.0" y2="226.1" stroke="#ededed"/><line x1="74.0" y1="160.1" x2="80.0" y2="160.1" stroke="black"/><text x="72.0" y="164.1" text-anchor="end">500</text><line x1="80.0" y1="160.1" x2="920.0" y2="160.1" stroke="#ededed"/><line x1="74.0" y1="94.2" x2="80.0" y2="94.2" stroke="black"/><text x="72.0" y="98.2" text-anchor="end">600</text><line x1="80.0" y1="94.2" x2="920.0" y2="94.2" stroke="#ededed"/><line x1="74.0" y1="28.2" x2="80.0" y2="28.2" stroke="black"/><text x="72.0" y="32.2" text-anchor="end">700</text><line x1="80.0" y1="28.2" x2="920.0" y2="28.2" stroke="#ededed"/><polyline fill="none" stroke="#d62728" stroke-width="2" points="80.0,490.0 80.0,489.9 80.4,426.3 81.6,350.2 86.6,136.9 106.2,60.0 185.0,180.3 290.0,143.8 500.0,157.7 920.0,108.3 "/><circle cx="80.0" cy="490.0" r="3" fill="#d62728"/><circle cx="80.0" cy="489.9" r="3" fill="#d62728"/><circle cx="80.4" cy="426.3" r="3" fill="#d62728"/><circle cx="81.6" cy="350.2" r="3" fill="#d62728"/><circle cx="86.6" cy="136.9" r="3" fill="#d62728"/><circle cx="106.2" cy="60.0" r="3" fill="#d62728"/><circle cx="185.0" cy="180.3" r="3" fill="#d62728"/><circle cx="290.0" cy="143.8" r="3" fill="#d62728"/><circle cx="500.0" cy="157.7" r="3" fill="#d62728"/><circle cx="920.0" cy="108.3" r="3" fill="#d62728"/><polyline fill="none" stroke="#1f77b4" stroke-width="2" points="80.0,490.0 80.0,490.0 80.4,464.8 81.6,419.7 86.6,283.9 106.2,114.5 185.0,121.8 290.0,98.9 500.0,175.2 920.0,249.3 "/><circle cx="80.0" cy="490.0" r="3" fill="#1f77b4"/><circle cx="80.0" cy="490.0" r="3" fill="#1f77b4"/><circle cx="80.4" cy="464.8" r="3" fill="#1f77b4"/><circle cx="81.6" cy="419.7" r="3" fill="#1f77b4"/><circle cx="86.6" cy="283.9" r="3" fill="#1f77b4"/><circle cx="106.2" cy="114.5" r="3" fill="#1f77b4"/><circle cx="185.0" cy="121.8" r="3" fill="#1f77b4"/><circle cx="290.0" cy="98.9" r="3" fill="#1f77b4"/><circle cx="500.0" cy="175.2" r="3" fill="#1f77b4"/><circle cx="920.0" cy="249.3" r="3" fill="#1f77b4"/><rect x="770.0" y="70.0" width="140" height="54.0" fill="white" stroke="#ccc"/><line x1="780.0" y1="85.0" x2="800.0" y2="85.0" stroke="#d62728" stroke-width="3"/><text x="810.0" y="88.0">shm</text><line x1="780.0" y1="107.0" x2="800.0" y2="107.0" stroke="#1f77b4" stroke-width="3"/><text x="810.0" y="110.0">tcp</text></svg>