<svg xmlns="http://www.w3.org/2000/svg" width="960" height="560" viewBox="0 0 960 560"><style>text{font-family:Arial,sans-serif;font-size:12px;} .title{font-size:16px;font-weight:bold;}</style><rect width="100%" height="100%" fill="white"/><text x="480.0" y="30.0" class="title" text-anchor="middle">Streaming throughput</text><text x="480.0" y="540.0" text-anchor="middle">Payload size</text><text x="15" y="280.0" transform="rotate(-90 15,280.0)" text-anchor="middle">Throughput (MiB/s)</text><line x1="80.0" y1="490.0" x2="920.0" y2="490.0" stroke="black"/><line x1="80.0" y1="490.0" x2="80.0" y2="60.0" stroke="black"/><line x1="80.0" y1="490.0" x2="80.0" y2="496.0" stroke="black"/><text x="80.0" y="510.0" text-anchor="middle">0 B</text><line x1="80.0" y1="490.0" x2="80.0" y2="60.0" stroke="#dddddd"/><line x1="280.3" y1="490.0" x2="280.3" y2="496.0" stroke="black"/><text x="280.3" y="510.0" text-anchor="middle">488.3 KiB</text><line x1="280.3" y1="490.0" x2="280.3" y2="60.0" stroke="#dddddd"/><line x1="480.5" y1="490.0" x2="480.5" y2="496.0" stroke="black"/><text x="480.5" y="510.0" text-anchor="middle">976.6 KiB</text><line x1="480.5" y1="490.0" x2="480.5" y2="60.0" stroke="#dddddd"/><line x1="680.8" y1="490.0" x2="680.8" y2="496.0" stroke="black"/><text x="680.8" y="510.0" text-anchor="middle">1.4 MiB</text><line x1="680.8" y1="490.0" x2="680.8" y2="60.0" stroke="#dddddd"/><line x1="881.1" y1="490.0" x2="881.1" y2="496.0" stroke="black"/><text x="881.1" y="510.0" text-anchor="middle">1.9 MiB</text><line x1="881.1" y1="490.0" x2="881.1" y2="60.0" stroke="#dddddd"/><line x1="1081.4" y1="490.0" x2="1081.4" y2="496.0" stroke="black"/><text x="1081.4" y="510.0" text-anchor="middle">2.4 MiB</text><line x1="1081.4" y1="490.0" x2="1081.4" y2="60.0" stroke="#dddddd"/><line x1="74.0" y1="490.0" x2="80.0" y2="490.0" stroke="black"/><text x="72.0" y="494.0" text-anchor="end">0.00</text><line x1="80.0" y1="490.0" x2="920.0" y2="490.0" stroke="#ededed"/><line x1="74.0" y1="405.0" x2="80.0" y2="405.0" stroke="black"/><text x="72.0" y="409.0" text-anchor="end">200</text><line x1="80.0" y1="405.0" x2="920.0" y2="405.0" stroke="#ededed"/><line x1="74.0" y1="319.9" x2="80.0" y2="319.9" stroke="black"/><text x="72.0" y="323.9" text-anchor="end">400</text><line x1="80.0" y1="319.9" x2="920.0" y2="319.9" stroke="#ededed"/><line x1="74.0" y1="234.9" x2="80.0" y2="234.9" stroke="black"/><text x="72.0" y="238.9" text-anchor="end">600</text><line x1="80.0" y1="234.9" x2="920.0" y2="234.9" stroke="#ededed"/><line x1="74.0" y1="149.9" x2="80.0" y2="149.9" stroke="black"/><text x="72.0" y="153.9" text-anchor="end">800</text><line x1="80.0" y1="149.9" x2="920.0" y2="149.9" stroke="#ededed"/><line x1="74.0" y1="64.9" x2="80.0" y2="64.9" stroke="black"/><text x="72.0" y="68.9" text-anchor="end">1.0k</text><line x1="80.0" y1="64.9" x2="920.0" y2="64.9" stroke="#ededed"/><line x1="74.0" y1="-20.2" x2="80.0" y2="-20.2" stroke="black"/><text x="72.0" y="-16.2" text-anchor="end">1.2k</text><line x1="80.0" y1="-20.2" x2="920.0" y2="-20.2" stroke="#ededed"/><polyline fill="none" stroke="#d62728" stroke-width="2" points="80.0,490.0 80.0,490.0 80.4,469.9 81.6,451.3 86.6,342.5 106.2,60.0 185.0,372.0 290.0,363.0 500.0,387.2 920.0,356.9 "/><circle cx="80.0" cy="490.0" r="3" fill="#d62728"/><circle cx="80.0" cy="490.0" r="3" fill="#d62728"/><circle cx="80.4" cy="469.9" r="3" fill="#d62728"/><circle cx="81.6" cy="451.3" r="3" fill="#d62728"/><circle cx="86.6" cy="342.5" r="3" fill="#d62728"/><circle cx="106.2" cy="60.0" r="3" fill="#d62728"/><circle cx="185.0" cy="372.0" r="3" fill="#d62728"/><circle cx="290.0" cy="363.0" r="3" fill="#d62728"/><circle cx="500.0" cy="387.2" r="3" fill="#d62728"/><circle cx="920.0" cy="356.9" r="3" fill="#d62728"/><polyline fill="none" stroke="#1f77b4" stroke-width="2" points="80.0,490.0 80.0,490.0 80.4,480.6 81.6,460.7 86.6,404.9 106.2,408.9 185.0,435.3 290.0,430.9 500.0,412.4 920.0,409.4 "/><circle cx="80.0" cy="490.0" r="3" fill="#1f77b4"/><circle cx="80.0" cy="490.0" r="3" fill="#1f77b4"/><circle cx="80.4" cy="480.6" r="3" fill="#1f77b4"/><circle cx="81.6" cy="460.7" r="3" fill="#1f77b4"/><circle cx="86.6" cy="404.9" r="3" fill="#1f77b4"/><circle cx="106.2" cy="408.9" r="3" fill="#1f77b4"/><circle cx="185.0" cy="435.3" r="3" fill="#1f77b4"/><circle cx="290.0" cy="430.9" r="3" fill="#1f77b4"/><circle cx="500.0" cy="412.4" r="3" fill="#1f77b4"/><circle cx="920.0" cy="409.4" r="3" fill="#1f77b4"/><rect x="770.0" y="70.0" width="140" height="54.0" fill="white" stroke="#ccc"/><line x1="780.0" y1="85.0" x2="800.0" y2="85.0" stroke="#d62728" stroke-width="3"/><text x="810.0" y="88.0">shm</text><line x1="780.0" y1="107.0" x2="800.0" y2="107.0" stroke="#1f77b4" stroke-width="3"/><text x="810.0" y="110.0">tcp</text></svg>