<svg xmlns="http://www.w3.org/2000/svg" width="960" height="560" viewBox="0 0 960 560"><style>text{font-family:Arial,sans-serif;font-size:12px;} .title{font-size:16px;font-weight:bold;}</style><rect width="100%" height="100%" fill="white"/><text x="480.0" y="30.0" class="title" text-anchor="middle">Streaming throughput</text><text x="480.0" y="540.0" text-anchor="middle">Payload size</text><text x="15" y="280.0" transform="rotate(-90 15,280.0)" text-anchor="middle">Throughput (MiB/s)</text><line x1="80.0" y1="490.0" x2="920.0" y2="490.0" stroke="black"/><line x1="80.0" y1="490.0" x2="80.0" y2="60.0" stroke="black"/><line x1="80.0" y1="490.0" x2="80.0" y2="496.0" stroke="black"/><text x="80.0" y="510.0" text-anchor="middle">0 B</text><line x1="80.0" y1="490.0" x2="80.0" y2="60.0" stroke="#dddddd"/><line x1="205.2" y1="490.0" x2="205.2" y2="496.0" stroke="black"/><text x="205.2" y="510.0" text-anchor="middle">19.1 MiB</text><line x1="205.2" y1="490.0" x2="205.2" y2="60.0" stroke="#dddddd"/><line x1="330.3" y1="490.0" x2="330.3" y2="496.0" stroke="black"/><text x="330.3" y="510.0" text-anchor="middle">38.1 MiB</text><line x1="330.3" y1="490.0" x2="330.3" y2="60.0" stroke="#dddddd"/><line x1="455.5" y1="490.0" x2="455.5" y2="496.0" stroke="black"/><text x="455.5" y="510.0" text-anchor="middle">57.2 MiB</text><line x1="455.5" y1="490.0" x2="455.5" y2="60.0" stroke="#dddddd"/><line x1="580.7" y1="490.0" x2="580.7" y2="496.0" stroke="black"/><text x="580.7" y="510.0" text-anchor="middle">76.3 MiB</text><line x1="580.7" y1="490.0" x2="580.7" y2="60.0" stroke="#dddddd"/><line x1="705.8" y1="490.0" x2="705.8" y2="496.0" stroke="black"/><text x="705.8" y="510.0" text-anchor="middle">95.4 MiB</text><line x1="705.8" y1="490.0" x2="705.8" y2="60.0" stroke="#dddddd"/><line x1="831.0" y1="490.0" x2="831.0" y2="496.0" stroke="black"/><text x="831.0" y="510.0" text-anchor="middle">114.4 MiB</text><line x1="831.0" y1="490.0" x2="831.0" y2="60.0" stroke="#dddddd"/><line x1="956.2" y1="490.0" x2="956.2" y2="496.0" stroke="black"/><text x="956.2" y="510.0" text-anchor="middle">133.5 MiB</text><line x1="956.2" y1="490.0" x2="956.2" y2="60.0" stroke="#dddddd"/><line x1="74.0" y1="490.0" x2="80.0" y2="490.0" stroke="black"/><text x="72.0" y="494.0" text-anchor="end">0.00</text><line x1="80.0" y1="490.0" x2="920.0" y2="490.0" stroke="#ededed"/><line x1="74.0" y1="371.1" x2="80.0" y2="371.1" stroke="black"/><text x="72.0" y="375.1" text-anchor="end">500</text><line x1="80.0" y1="371.1" x2="920.0" y2="371.1" stroke="#ededed"/><line x1="74.0" y1="252.3" x2="80.0" y2="252.3" stroke="black"/><text x="72.0" y="256.3" text-anchor="end">1.0k</text><line x1="80.0" y1="252.3" x2="920.0" y2="252.3" stroke="#ededed"/><line x1="74.0" y1="133.4" x2="80.0" y2="133.4" stroke="black"/><text x="72.0" y="137.4" text-anchor="end">1.5k</text><line x1="80.0" y1="133.4" x2="920.0" y2="133.4" stroke="#ededed"/><line x1="74.0" y1="14.6" x2="80.0" y2="14.6" stroke="black"/><text x="72.0" y="18.6" text-anchor="end">2.0k</text><line x1="80.0" y1="14.6" x2="920.0" y2="14.6" stroke="#ededed"/><polyline fill="none" stroke="#d62728" stroke-width="2" points="80.0,490.0 80.0,490.0 80.0,473.7 80.0,438.3 80.1,339.1 80.4,138.0 81.6,160.1 83.3,206.0 86.6,136.2 93.1,217.8 106.2,198.8 185.0,151.6 290.0,60.0 500.0,121.7 920.0,245.2 "/><circle cx="80.0" cy="490.0" r="3" fill="#d62728"/><circle cx="80.0" cy="490.0" r="3" fill="#d62728"/><circle cx="80.0" cy="473.7" r="3" fill="#d62728"/><circle cx="80.0" cy="438.3" r="3" fill="#d62728"/><circle cx="80.1" cy="339.1" r="3" fill="#d62728"/><circle cx="80.4" cy="138.0" r="3" fill="#d62728"/><circle cx="81.6" cy="160.1" r="3" fill="#d62728"/><circle cx="83.3" cy="206.0" r="3" fill="#d62728"/><circle cx="86.6" cy="136.2" r="3" fill="#d62728"/><circle cx="93.1" cy="217.8" r="3" fill="#d62728"/><circle cx="106.2" cy="198.8" r="3" fill="#d62728"/><circle cx="185.0" cy="151.6" r="3" fill="#d62728"/><circle cx="290.0" cy="60.0" r="3" fill="#d62728"/><circle cx="500.0" cy="121.7" r="3" fill="#d62728"/><circle cx="920.0" cy="245.2" r="3" fill="#d62728"/><polyline fill="none" stroke="#1f77b4" stroke-width="2" points="80.0,490.0 80.0,490.0 80.0,485.3 80.0,476.3 80.1,449.2 80.4,395.3 81.6,459.3 83.3,444.5 86.6,445.9 93.1,423.9 106.2,418.7 185.0,410.2 290.0,409.8 500.0,405.2 920.0,402.3 "/><circle cx="80.0" cy="490.0" r="3" fill="#1f77b4"/><circle cx="80.0" cy="490.0" r="3" fill="#1f77b4"/><circle cx="80.0" cy="485.3" r="3" fill="#1f77b4"/><circle cx="80.0" cy="476.3" r="3" fill="#1f77b4"/><circle cx="80.1" cy="449.2" r="3" fill="#1f77b4"/><circle cx="80.4" cy="395.3" r="3" fill="#1f77b4"/><circle cx="81.6" cy="459.3" r="3" fill="#1f77b4"/><circle cx="83.3" cy="444.5" r="3" fill="#1f77b4"/><circle cx="86.6" cy="445.9" r="3" fill="#1f77b4"/><circle cx="93.1" cy="423.9" r="3" fill="#1f77b4"/><circle cx="106.2" cy="418.7" r="3" fill="#1f77b4"/><circle cx="185.0" cy="410.2" r="3" fill="#1f77b4"/><circle cx="290.0" cy="409.8" r="3" fill="#1f77b4"/><circle cx="500.0" cy="405.2" r="3" fill="#1f77b4"/><circle cx="920.0" cy="402.3" r="3" fill="#1f77b4"/><rect x="770.0" y="70.0" width="140" height="54.0" fill="white" stroke="#ccc"/><line x1="780.0" y1="85.0" x2="800.0" y2="85.0" stroke="#d62728" stroke-width="3"/><text x="810.0" y="88.0">shm</text><line x1="780.0" y1="107.0" x2="800.0" y2="107.0" stroke="#1f77b4" stroke-width="3"/><text x="810.0" y="110.0">tcp</text></svg>