<svg xmlns="http://www.w3.org/2000/svg" width="960" height="560" viewBox="0 0 960 560"><style>text{font-family:Arial,sans-serif;font-size:12px;} .title{font-size:16px;font-weight:bold;}</style><rect width="100%" height="100%" fill="white"/><text x="480.0" y="30.0" class="title" text-anchor="middle">Streaming throughput</text><text x="480.0" y="540.0" text-anchor="middle">Payload size</text><text x="15" y="280.0" transform="rotate(-90 15,280.0)" text-anchor="middle">Throughput (MiB/s)</text><line x1="80.0" y1="490.0" x2="920.0" y2="490.0" stroke="black"/><line x1="80.0" y1="490.0" x2="80.0" y2="60.0" stroke="black"/><line x1="80.0" y1="490.0" x2="80.0" y2="496.0" stroke="black"/><text x="80.0" y="510.0" text-anchor="middle">0 B</text><line x1="80.0" y1="490.0" x2="80.0" y2="60.0" stroke="#dddddd"/><line x1="205.2" y1="490.0" x2="205.2" y2="496.0" stroke="black"/><text x="205.2" y="510.0" text-anchor="middle">19.1 MiB</text><line x1="205.2" y1="490.0" x2="205.2" y2="60.0" stroke="#dddddd"/><line x1="330.3" y1="490.0" x2="330.3" y2="496.0" stroke="black"/><text x="330.3" y="510.0" text-anchor="middle">38.1 MiB</text><line x1="330.3" y1="490.0" x2="330.3" y2="60.0" stroke="#dddddd"/><line x1="455.5" y1="490.0" x2="455.5" y2="496.0" stroke="black"/><text x="455.5" y="510.0" text-anchor="middle">57.2 MiB</text><line x1="455.5" y1="490.0" x2="455.5" y2="60.0" stroke="#dddddd"/><line x1="580.7" y1="490.0" x2="580.7" y2="496.0" stroke="black"/><text x="580.7" y="510.0" text-anchor="middle">76.3 MiB</text><line x1="580.7" y1="490.0" x2="580.7" y2="60.0" stroke="#dddddd"/><line x1="705.8" y1="490.0" x2="705.8" y2="496.0" stroke="black"/><text x="705.8" y="510.0" text-anchor="middle">95.4 MiB</text><line x1="705.8" y1="490.0" x2="705.8" y2="60.0" stroke="#dddddd"/><line x1="831.0" y1="490.0" x2="831.0" y2="496.0" stroke="black"/><text x="831.0" y="510.0" text-anchor="middle">114.4 MiB</text><line x1="831.0" y1="490.0" x2="831.0" y2="60.0" stroke="#dddddd"/><line x1="956.2" y1="490.0" x2="956.2" y2="496.0" stroke="black"/><text x="956.2" y="510.0" text-anchor="middle">133.5 MiB</text><line x1="956.2" y1="490.0" x2="956.2" y2="60.0" stroke="#dddddd"/><line x1="74.0" y1="490.0" x2="80.0" y2="490.0" stroke="black"/><text x="72.0" y="494.0" text-anchor="end">0.00</text><line x1="80.0" y1="490.0" x2="920.0" y2="490.0" stroke="#ededed"/><line x1="74.0" y1="372.9" x2="80.0" y2="372.9" stroke="black"/><text x="72.0" y="376.9" text-anchor="end">500</text><line x1="80.0" y1="372.9" x2="920.0" y2="372.9" stroke="#ededed"/><line x1="74.0" y1="255.8" x2="80.0" y2="255.8" stroke="black"/><text x="72.0" y="259.8" text-anchor="end">1.0k</text><line x1="80.0" y1="255.8" x2="920.0" y2="255.8" stroke="#ededed"/><line x1="74.0" y1="138.8" x2="80.0" y2="138.8" stroke="black"/><text x="72.0" y="142.8" text-anchor="end">1.5k</text><line x1="80.0" y1="138.8" x2="920.0" y2="138.8" stroke="#ededed"/><line x1="74.0" y1="21.7" x2="80.0" y2="21.7" stroke="black"/><text x="72.0" y="25.7" text-anchor="end">2.0k</text><line x1="80.0" y1="21.7" x2="920.0" y2="21.7" stroke="#ededed"/><polyline fill="none" stroke="#d62728" stroke-width="2" points="80.0,490.0 80.0,490.0 80.0,470.2 80.0,426.4 80.1,433.3 80.4,60.0 81.6,176.1 83.3,245.2 86.6,242.0 93.1,199.3 106.2,187.7 185.0,139.8 290.0,113.8 500.0,217.4 920.0,228.2 "/><circle cx="80.0" cy="490.0" r="3" fill="#d62728"/><circle cx="80.0" cy="490.0" r="3" fill="#d62728"/><circle cx="80.0" cy="470.2" r="3" fill="#d62728"/><circle cx="80.0" cy="426.4" r="3" fill="#d62728"/><circle cx="80.1" cy="433.3" r="3" fill="#d62728"/><circle cx="80.4" cy="60.0" r="3" fill="#d62728"/><circle cx="81.6" cy="176.1" r="3" fill="#d62728"/><circle cx="83.3" cy="245.2" r="3" fill="#d62728"/><circle cx="86.6" cy="242.0" r="3" fill="#d62728"/><circle cx="93.1" cy="199.3" r="3" fill="#d62728"/><circle cx="106.2" cy="187.7" r="3" fill="#d62728"/><circle cx="185.0" cy="139.8" r="3" fill="#d62728"/><circle cx="290.0" cy="113.8" r="3" fill="#d62728"/><circle cx="500.0" cy="217.4" r="3" fill="#d62728"/><circle cx="920.0" cy="228.2" r="3" fill="#d62728"/><polyline fill="none" stroke="#1f77b4" stroke-width="2" points="80.0,490.0 80.0,490.0 80.0,488.5 80.0,488.3 80.1,479.9 80.4,361.3 81.6,444.9 83.3,429.1 86.6,441.5 93.1,424.3 106.2,394.5 185.0,393.8 290.0,388.9 500.0,385.3 920.0,388.0 "/><circle cx="80.0" cy="490.0" r="3" fill="#1f77b4"/><circle cx="80.0" cy="490.0" r="3" fill="#1f77b4"/><circle cx="80.0" cy="488.5" r="3" fill="#1f77b4"/><circle cx="80.0" cy="488.3" r="3" fill="#1f77b4"/><circle cx="80.1" cy="479.9" r="3" fill="#1f77b4"/><circle cx="80.4" cy="361.3" r="3" fill="#1f77b4"/><circle cx="81.6" cy="444.9" r="3" fill="#1f77b4"/><circle cx="83.3" cy="429.1" r="3" fill="#1f77b4"/><circle cx="86.6" cy="441.5" r="3" fill="#1f77b4"/><circle cx="93.1" cy="424.3" r="3" fill="#1f77b4"/><circle cx="106.2" cy="394.5" r="3" fill="#1f77b4"/><circle cx="185.0" cy="393.8" r="3" fill="#1f77b4"/><circle cx="290.0" cy="388.9" r="3" fill="#1f77b4"/><circle cx="500.0" cy="385.3" r="3" fill="#1f77b4"/><circle cx="920.0" cy="388.0" r="3" fill="#1f77b4"/><rect x="770.0" y="70.0" width="140" height="54.0" fill="white" stroke="#ccc"/><line x1="780.0" y1="85.0" x2="800.0" y2="85.0" stroke="#d62728" stroke-width="3"/><text x="810.0" y="88.0">shm</text><line x1="780.0" y1="107.0" x2="800.0" y2="107.0" stroke="#1f77b4" stroke-width="3"/><text x="810.0" y="110.0">tcp</text></svg>