<svg xmlns="http://www.w3.org/2000/svg" width="960" height="560" viewBox="0 0 960 560"><style>text{font-family:Arial,sans-serif;font-size:12px;} .title{font-size:16px;font-weight:bold;}</style><rect width="100%" height="100%" fill="white"/><text x="480.0" y="30.0" class="title" text-anchor="middle">Streaming ping-pong latency</text><text x="480.0" y="540.0" text-anchor="middle">Payload size</text><text x="15" y="280.0" transform="rotate(-90 15,280.0)" text-anchor="middle">Avg latency (µs)</text><line x1="80.0" y1="490.0" x2="920.0" y2="490.0" stroke="black"/><line x1="80.0" y1="490.0" x2="80.0" y2="60.0" stroke="black"/><line x1="80.0" y1="490.0" x2="80.0" y2="496.0" stroke="black"/><text x="80.0" y="510.0" text-anchor="middle">0 B</text><line x1="80.0" y1="490.0" x2="80.0" y2="60.0" stroke="#dddddd"/><line x1="280.3" y1="490.0" x2="280.3" y2="496.0" stroke="black"/><text x="280.3" y="510.0" text-anchor="middle">488.3 KiB</text><line x1="280.3" y1="490.0" x2="280.3" y2="60.0" stroke="#dddddd"/><line x1="480.5" y1="490.0" x2="480.5" y2="496.0" stroke="black"/><text x="480.5" y="510.0" text-anchor="middle">976.6 KiB</text><line x1="480.5" y1="490.0" x2="480.5" y2="60.0" stroke="#dddddd"/><line x1="680.8" y1="490.0" x2="680.8" y2="496.0" stroke="black"/><text x="680.8" y="510.0" text-anchor="middle">1.4 MiB</text><line x1="680.8" y1="490.0" x2="680.8" y2="60.0" stroke="#dddddd"/><line x1="881.1" y1="490.0" x2="881.1" y2="496.0" stroke="black"/><text x="881.1" y="510.0" text-anchor="middle">1.9 MiB</text><line x1="881.1" y1="490.0" x2="881.1" y2="60.0" stroke="#dddddd"/><line x1="1081.4" y1="490.0" x2="1081.4" y2="496.0" stroke="black"/><text x="1081.4" y="510.0" text-anchor="middle">2.4 MiB</text><line x1="1081.4" y1="490.0" x2="1081.4" y2="60.0" stroke="#dddddd"/><line x1="74.0" y1="490.0" x2="80.0" y2="490.0" stroke="black"/><text x="72.0" y="494.0" text-anchor="end">0.00</text><line x1="80.0" y1="490.0" x2="920.0" y2="490.0" stroke="#ededed"/><line x1="74.0" y1="438.2" x2="80.0" y2="438.2" stroke="black"/><text x="72.0" y="442.2" text-anchor="end">2.0k</text><line x1="80.0" y1="438.2" x2="920.0" y2="438.2" stroke="#ededed"/><line x1="74.0" y1="386.4" x2="80.0" y2="386.4" stroke="black"/><text x="72.0" y="390.4" text-anchor="end">4.0k</text><line x1="80.0" y1="386.4" x2="920.0" y2="386.4" stroke="#ededed"/><line x1="74.0" y1="334.6" x2="80.0" y2="334.6" stroke="black"/><text x="72.0" y="338.6" text-anchor="end">6.0k</text><line x1="80.0" y1="334.6" x2="920.0" y2="334.6" stroke="#ededed"/><line x1="74.0" y1="282.8" x2="80.0" y2="282.8" stroke="black"/><text x="72.0" y="286.8" text-anchor="end">8.0k</text><line x1="80.0" y1="282.8" x2="920.0" y2="282.8" stroke="#ededed"/><line x1="74.0" y1="231.0" x2="80.0" y2="231.0" stroke="black"/><text x="72.0" y="235.0" text-anchor="end">10.0k</text><line x1="80.0" y1="231.0" x2="920.0" y2="231.0" stroke="#ededed"/><line x1="74.0" y1="179.2" x2="80.0" y2="179.2" stroke="black"/><text x="72.0" y="183.2" text-anchor="end">12.0k</text><line x1="80.0" y1="179.2" x2="920.0" y2="179.2" stroke="#ededed"/><line x1="74.0" y1="127.3" x2="80.0" y2="127.3" stroke="black"/><text x="72.0" y="131.3" text-anchor="end">14.0k</text><line x1="80.0" y1="127.3" x2="920.0" y2="127.3" stroke="#ededed"/><line x1="74.0" y1="75.5" x2="80.0" y2="75.5" stroke="black"/><text x="72.0" y="79.5" text-anchor="end">16.0k</text><line x1="80.0" y1="75.5" x2="920.0" y2="75.5" stroke="#ededed"/><line x1="74.0" y1="23.7" x2="80.0" y2="23.7" stroke="black"/><text x="72.0" y="27.7" text-anchor="end">18.0k</text><line x1="80.0" y1="23.7" x2="920.0" y2="23.7" stroke="#ededed"/><polyline fill="none" stroke="#d62728" stroke-width="2" points="80.0,489.6 80.0,489.6 80.4,489.5 81.6,489.0 86.6,489.0 106.2,487.8 185.0,467.4 290.0,435.5 500.0,372.4 920.0,292.0 "/><circle cx="80.0" cy="489.6" r="3" fill="#d62728"/><circle cx="80.0" cy="489.6" r="3" fill="#d62728"/><circle cx="80.4" cy="489.5" r="3" fill="#d62728"/><circle cx="81.6" cy="489.0" r="3" fill="#d62728"/><circle cx="86.6" cy="489.0" r="3" fill="#d62728"/><circle cx="106.2" cy="487.8" r="3" fill="#d62728"/><circle cx="185.0" cy="467.4" r="3" fill="#d62728"/><circle cx="290.0" cy="435.5" r="3" fill="#d62728"/><circle cx="500.0" cy="372.4" r="3" fill="#d62728"/><circle cx="920.0" cy="292.0" r="3" fill="#d62728"/><polyline fill="none" stroke="#1f77b4" stroke-width="2" points="80.0,486.5 80.0,485.6 80.4,487.3 81.6,486.7 86.6,486.5 106.2,480.3 185.0,357.1 290.0,322.2 500.0,192.1 920.0,60.0 "/><circle cx="80.0" cy="486.5" r="3" fill="#1f77b4"/><circle cx="80.0" cy="485.6" r="3" fill="#1f77b4"/><circle cx="80.4" cy="487.3" r="3" fill="#1f77b4"/><circle cx="81.6" cy="486.7" r="3" fill="#1f77b4"/><circle cx="86.6" cy="486.5" r="3" fill="#1f77b4"/><circle cx="106.2" cy="480.3" r="3" fill="#1f77b4"/><circle cx="185.0" cy="357.1" r="3" fill="#1f77b4"/><circle cx="290.0" cy="322.2" r="3" fill="#1f77b4"/><circle cx="500.0" cy="192.1" r="3" fill="#1f77b4"/><circle cx="920.0" cy="60.0" r="3" fill="#1f77b4"/><rect x="770.0" y="70.0" width="140" height="54.0" fill="white" stroke="#ccc"/><line x1="780.0" y1="85.0" x2="800.0" y2="85.0" stroke="#d62728" stroke-width="3"/><text x="810.0" y="88.0">shm</text><line x1="780.0" y1="107.0" x2="800.0" y2="107.0" stroke="#1f77b4" stroke-width="3"/><text x="810.0" y="110.0">tcp</text></svg>