<svg xmlns="http://www.w3.org/2000/svg" width="960" height="560" viewBox="0 0 960 560"><style>text{font-family:Arial,sans-serif;font-size:12px;} .title{font-size:16px;font-weight:bold;}</style><rect width="100%" height="100%" fill="white"/><text x="480.0" y="30.0" class="title" text-anchor="middle">Streaming throughput</text><text x="480.0" y="540.0" text-anchor="middle">Payload size</text><text x="15" y="280.0" transform="rotate(-90 15,280.0)" text-anchor="middle">Throughput (MiB/s)</text><line x1="80.0" y1="490.0" x2="920.0" y2="490.0" stroke="black"/><line x1="80.0" y1="490.0" x2="80.0" y2="60.0" stroke="black"/><line x1="80.0" y1="490.0" x2="80.0" y2="496.0" stroke="black"/><text x="80.0" y="510.0" text-anchor="middle">0 B</text><line x1="80.0" y1="490.0" x2="80.0" y2="60.0" stroke="#dddddd"/><line x1="280.3" y1="490.0" x2="280.3" y2="496.0" stroke="black"/><text x="280.3" y="510.0" text-anchor="middle">488.3 KiB</text><line x1="280.3" y1="490.0" x2="280.3" y2="60.0" stroke="#dddddd"/><line x1="480.5" y1="490.0" x2="480.5" y2="496.0" stroke="black"/><text x="480.5" y="510.0" text-anchor="middle">976.6 KiB</text><line x1="480.5" y1="490.0" x2="480.5" y2="60.0" stroke="#dddddd"/><line x1="680.8" y1="490.0" x2="680.8" y2="496.0" stroke="black"/><text x="680.8" y="510.0" text-anchor="middle">1.4 MiB</text><line x1="680.8" y1="490.0" x2="680.8" y2="60.0" stroke="#dddddd"/><line x1="881.1" y1="490.0" x2="881.1" y2="496.0" stroke="black"/><text x="881.1" y="510.0" text-anchor="middle">1.9 MiB</text><line x1="881.1" y1="490.0" x2="881.1" y2="60.0" stroke="#dddddd"/><line x1="1081.4" y1="490.0" x2="1081.4" y2="496.0" stroke="black"/><text x="1081.4" y="510.0" text-anchor="middle">2.4 MiB</text><line x1="1081.4" y1="490.0" x2="1081.4" y2="60.0" stroke="#dddddd"/><line x1="74.0" y1="490.0" x2="80.0" y2="490.0" stroke="black"/><text x="72.0" y="494.0" text-anchor="end">0.00</text><line x1="80.0" y1="490.0" x2="920.0" y2="490.0" stroke="#ededed"/><line x1="74.0" y1="431.5" x2="80.0" y2="431.5" stroke="black"/><text x="72.0" y="435.5" text-anchor="end">200</text><line x1="80.0" y1="431.5" x2="920.0" y2="431.5" stroke="#ededed"/><line x1="74.0" y1="373.0" x2="80.0" y2="373.0" stroke="black"/><text x="72.0" y="377.0" text-anchor="end">400</text><line x1="80.0" y1="373.0" x2="920.0" y2="373.0" stroke="#ededed"/><line x1="74.0" y1="314.5" x2="80.0" y2="314.5" stroke="black"/><text x="72.0" y="318.5" text-anchor="end">600</text><line x1="80.0" y1="314.5" x2="920.0" y2="314.5" stroke="#ededed"/><line x1="74.0" y1="255.9" x2="80.0" y2="255.9" stroke="black"/><text x="72.0" y="259.9" text-anchor="end">800</text><line x1="80.0" y1="255.9" x2="920.0" y2="255.9" stroke="#ededed"/><line x1="74.0" y1="197.4" x2="80.0" y2="197.4" stroke="black"/><text x="72.0" y="201.4" text-anchor="end">1.0k</text><line x1="80.0" y1="197.4" x2="920.0" y2="197.4" stroke="#ededed"/><line x1="74.0" y1="138.9" x2="80.0" y2="138.9" stroke="black"/><text x="72.0" y="142.9" text-anchor="end">1.2k</text><line x1="80.0" y1="138.9" x2="920.0" y2="138.9" stroke="#ededed"/><line x1="74.0" y1="80.4" x2="80.0" y2="80.4" stroke="black"/><text x="72.0" y="84.4" text-anchor="end">1.4k</text><line x1="80.0" y1="80.4" x2="920.0" y2="80.4" stroke="#ededed"/><line x1="74.0" y1="21.9" x2="80.0" y2="21.9" stroke="black"/><text x="72.0" y="25.9" text-anchor="end">1.6k</text><line x1="80.0" y1="21.9" x2="920.0" y2="21.9" stroke="#ededed"/><polyline fill="none" stroke="#d62728" stroke-width="2" points="80.0,490.0 80.0,490.0 80.4,459.0 81.6,429.2 86.6,241.5 106.2,60.0 185.0,322.0 290.0,351.0 500.0,361.1 920.0,336.9 "/><circle cx="80.0" cy="490.0" r="3" fill="#d62728"/><circle cx="80.0" cy="490.0" r="3" fill="#d62728"/><circle cx="80.4" cy="459.0" r="3" fill="#d62728"/><circle cx="81.6" cy="429.2" r="3" fill="#d62728"/><circle cx="86.6" cy="241.5" r="3" fill="#d62728"/><circle cx="106.2" cy="60.0" r="3" fill="#d62728"/><circle cx="185.0" cy="322.0" r="3" fill="#d62728"/><circle cx="290.0" cy="351.0" r="3" fill="#d62728"/><circle cx="500.0" cy="361.1" r="3" fill="#d62728"/><circle cx="920.0" cy="336.9" r="3" fill="#d62728"/><polyline fill="none" stroke="#1f77b4" stroke-width="2" points="80.0,490.0 80.0,490.0 80.4,484.5 81.6,472.3 86.6,422.6 106.2,392.7 185.0,461.5 290.0,444.8 500.0,439.1 920.0,419.5 "/><circle cx="80.0" cy="490.0" r="3" fill="#1f77b4"/><circle cx="80.0" cy="490.0" r="3" fill="#1f77b4"/><circle cx="80.4" cy="484.5" r="3" fill="#1f77b4"/><circle cx="81.6" cy="472.3" r="3" fill="#1f77b4"/><circle cx="86.6" cy="422.6" r="3" fill="#1f77b4"/><circle cx="106.2" cy="392.7" r="3" fill="#1f77b4"/><circle cx="185.0" cy="461.5" r="3" fill="#1f77b4"/><circle cx="290.0" cy="444.8" r="3" fill="#1f77b4"/><circle cx="500.0" cy="439.1" r="3" fill="#1f77b4"/><circle cx="920.0" cy="419.5" r="3" fill="#1f77b4"/><rect x="770.0" y="70.0" width="140" height="54.0" fill="white" stroke="#ccc"/><line x1="780.0" y1="85.0" x2="800.0" y2="85.0" stroke="#d62728" stroke-width="3"/><text x="810.0" y="88.0">shm</text><line x1="780.0" y1="107.0" x2="800.0" y2="107.0" stroke="#1f77b4" stroke-width="3"/><text x="810.0" y="110.0">tcp</text></svg>