<svg xmlns="http://www.w3.org/2000/svg" width="960" height="560" viewBox="0 0 960 560"><style>text{font-family:Arial,sans-serif;font-size:12px;} .title{font-size:16px;font-weight:bold;}</style><rect width="100%" height="100%" fill="white"/><text x="480.0" y="30.0" class="title" text-anchor="middle">Streaming ping-pong latency</text><text x="480.0" y="540.0" text-anchor="middle">Payload size</text><text x="15" y="280.0" transform="rotate(-90 15,280.0)" text-anchor="middle">Avg latency (µs)</text><line x1="80.0" y1="490.0" x2="920.0" y2="490.0" stroke="black"/><line x1="80.0" y1="490.0" x2="80.0" y2="60.0" stroke="black"/><line x1="80.0" y1="490.0" x2="80.0" y2="496.0" stroke="black"/><text x="80.0" y="510.0" text-anchor="middle">0 B</text><line x1="80.0" y1="490.0" x2="80.0" y2="60.0" stroke="#dddddd"/><line x1="205.2" y1="490.0" x2="205.2" y2="496.0" stroke="black"/><text x="205.2" y="510.0" text-anchor="middle">19.1 MiB</text><line x1="205.2" y1="490.0" x2="205.2" y2="60.0" stroke="#dddddd"/><line x1="330.3" y1="490.0" x2="330.3" y2="496.0" stroke="black"/><text x="330.3" y="510.0" text-anchor="middle">38.1 MiB</text><line x1="330.3" y1="490.0" x2="330.3" y2="60.0" stroke="#dddddd"/><line x1="455.5" y1="490.0" x2="455.5" y2="496.0" stroke="black"/><text x="455.5" y="510.0" text-anchor="middle">57.2 MiB</text><line x1="455.5" y1="490.0" x2="455.5" y2="60.0" stroke="#dddddd"/><line x1="580.7" y1="490.0" x2="580.7" y2="496.0" stroke="black"/><text x="580.7" y="510.0" text-anchor="middle">76.3 MiB</text><line x1="580.7" y1="490.0" x2="580.7" y2="60.0" stroke="#dddddd"/><line x1="705.8" y1="490.0" x2="705.8" y2="496.0" stroke="black"/><text x="705.8" y="510.0" text-anchor="middle">95.4 MiB</text><line x1="705.8" y1="490.0" x2="705.8" y2="60.0" stroke="#dddddd"/><line x1="831.0" y1="490.0" x2="831.0" y2="496.0" stroke="black"/><text x="831.0" y="510.0" text-anchor="middle">114.4 MiB</text><line x1="831.0" y1="490.0" x2="831.0" y2="60.0" stroke="#dddddd"/><line x1="956.2" y1="490.0" x2="956.2" y2="496.0" stroke="black"/><text x="956.2" y="510.0" text-anchor="middle">133.5 MiB</text><line x1="956.2" y1="490.0" x2="956.2" y2="60.0" stroke="#dddddd"/><line x1="74.0" y1="490.0" x2="80.0" y2="490.0" stroke="black"/><text x="72.0" y="494.0" text-anchor="end">0.00</text><line x1="80.0" y1="490.0" x2="920.0" y2="490.0" stroke="#ededed"/><line x1="74.0" y1="428.1" x2="80.0" y2="428.1" stroke="black"/><text x="72.0" y="432.1" text-anchor="end">100.0k</text><line x1="80.0" y1="428.1" x2="920.0" y2="428.1" stroke="#ededed"/><line x1="74.0" y1="366.1" x2="80.0" y2="366.1" stroke="black"/><text x="72.0" y="370.1" text-anchor="end">200.0k</text><line x1="80.0" y1="366.1" x2="920.0" y2="366.1" stroke="#ededed"/><line x1="74.0" y1="304.2" x2="80.0" y2="304.2" stroke="black"/><text x="72.0" y="308.2" text-anchor="end">300.0k</text><line x1="80.0" y1="304.2" x2="920.0" y2="304.2" stroke="#ededed"/><line x1="74.0" y1="242.2" x2="80.0" y2="242.2" stroke="black"/><text x="72.0" y="246.2" text-anchor="end">400.0k</text><line x1="80.0" y1="242.2" x2="920.0" y2="242.2" stroke="#ededed"/><line x1="74.0" y1="180.3" x2="80.0" y2="180.3" stroke="black"/><text x="72.0" y="184.3" text-anchor="end">500.0k</text><line x1="80.0" y1="180.3" x2="920.0" y2="180.3" stroke="#ededed"/><line x1="74.0" y1="118.3" x2="80.0" y2="118.3" stroke="black"/><text x="72.0" y="122.3" text-anchor="end">600.0k</text><line x1="80.0" y1="118.3" x2="920.0" y2="118.3" stroke="#ededed"/><line x1="74.0" y1="56.4" x2="80.0" y2="56.4" stroke="black"/><text x="72.0" y="60.4" text-anchor="end">700.0k</text><line x1="80.0" y1="56.4" x2="920.0" y2="56.4" stroke="#ededed"/><polyline fill="none" stroke="#d62728" stroke-width="2" points="80.0,490.0 80.0,490.0 80.0,490.0 80.0,490.0 80.1,490.0 80.4,489.9 81.6,489.8 83.3,489.5 86.6,489.2 93.1,487.8 106.2,486.0 185.0,476.1 290.0,468.1 500.0,438.8 920.0,336.0 "/><circle cx="80.0" cy="490.0" r="3" fill="#d62728"/><circle cx="80.0" cy="490.0" r="3" fill="#d62728"/><circle cx="80.0" cy="490.0" r="3" fill="#d62728"/><circle cx="80.0" cy="490.0" r="3" fill="#d62728"/><circle cx="80.1" cy="490.0" r="3" fill="#d62728"/><circle cx="80.4" cy="489.9" r="3" fill="#d62728"/><circle cx="81.6" cy="489.8" r="3" fill="#d62728"/><circle cx="83.3" cy="489.5" r="3" fill="#d62728"/><circle cx="86.6" cy="489.2" r="3" fill="#d62728"/><circle cx="93.1" cy="487.8" r="3" fill="#d62728"/><circle cx="106.2" cy="486.0" r="3" fill="#d62728"/><circle cx="185.0" cy="476.1" r="3" fill="#d62728"/><circle cx="290.0" cy="468.1" r="3" fill="#d62728"/><circle cx="500.0" cy="438.8" r="3" fill="#d62728"/><circle cx="920.0" cy="336.0" r="3" fill="#d62728"/><polyline fill="none" stroke="#1f77b4" stroke-width="2" points="80.0,489.9 80.0,489.9 80.0,489.9 80.0,489.9 80.1,489.9 80.4,489.8 81.6,487.6 83.3,486.8 86.6,483.3 93.1,481.1 106.2,473.5 185.0,430.9 290.0,372.5 500.0,267.8 920.0,60.0 "/><circle cx="80.0" cy="489.9" r="3" fill="#1f77b4"/><circle cx="80.0" cy="489.9" r="3" fill="#1f77b4"/><circle cx="80.0" cy="489.9" r="3" fill="#1f77b4"/><circle cx="80.0" cy="489.9" r="3" fill="#1f77b4"/><circle cx="80.1" cy="489.9" r="3" fill="#1f77b4"/><circle cx="80.4" cy="489.8" r="3" fill="#1f77b4"/><circle cx="81.6" cy="487.6" r="3" fill="#1f77b4"/><circle cx="83.3" cy="486.8" r="3" fill="#1f77b4"/><circle cx="86.6" cy="483.3" r="3" fill="#1f77b4"/><circle cx="93.1" cy="481.1" r="3" fill="#1f77b4"/><circle cx="106.2" cy="473.5" r="3" fill="#1f77b4"/><circle cx="185.0" cy="430.9" r="3" fill="#1f77b4"/><circle cx="290.0" cy="372.5" r="3" fill="#1f77b4"/><circle cx="500.0" cy="267.8" r="3" fill="#1f77b4"/><circle cx="920.0" cy="60.0" r="3" fill="#1f77b4"/><rect x="770.0" y="70.0" width="140" height="54.0" fill="white" stroke="#ccc"/><line x1="780.0" y1="85.0" x2="800.0" y2="85.0" stroke="#d62728" stroke-width="3"/><text x="810.0" y="88.0">shm</text><line x1="780.0" y1="107.0" x2="800.0" y2="107.0" stroke="#1f77b4" stroke-width="3"/><text x="810.0" y="110.0">tcp</text></svg>