<svg xmlns="http://www.w3.org/2000/svg" width="960" height="560" viewBox="0 0 960 560"><style>text{font-family:Arial,sans-serif;font-size:12px;} .title{font-size:16px;font-weight:bold;}</style><rect width="100%" height="100%" fill="white"/><text x="480.0" y="30.0" class="title" text-anchor="middle">Streaming throughput</text><text x="480.0" y="540.0" text-anchor="middle">Payload size</text><text x="15" y="280.0" transform="rotate(-90 15,280.0)" text-anchor="middle">Throughput (MiB/s)</text><line x1="80.0" y1="490.0" x2="920.0" y2="490.0" stroke="black"/><line x1="80.0" y1="490.0" x2="80.0" y2="60.0" stroke="black"/><line x1="80.0" y1="490.0" x2="80.0" y2="496.0" stroke="black"/><text x="80.0" y="510.0" text-anchor="middle">0 B</text><line x1="80.0" y1="490.0" x2="80.0" y2="60.0" stroke="#dddddd"/><line x1="180.1" y1="490.0" x2="180.1" y2="496.0" stroke="black"/><text x="180.1" y="510.0" text-anchor="middle">1.9 MiB</text><line x1="180.1" y1="490.0" x2="180.1" y2="60.0" stroke="#dddddd"/><line x1="280.3" y1="490.0" x2="280.3" y2="496.0" stroke="black"/><text x="280.3" y="510.0" text-anchor="middle">3.8 MiB</text><line x1="280.3" y1="490.0" x2="280.3" y2="60.0" stroke="#dddddd"/><line x1="380.4" y1="490.0" x2="380.4" y2="496.0" stroke="black"/><text x="380.4" y="510.0" text-anchor="middle">5.7 MiB</text><line x1="380.4" y1="490.0" x2="380.4" y2="60.0" stroke="#dddddd"/><line x1="480.5" y1="490.0" x2="480.5" y2="496.0" stroke="black"/><text x="480.5" y="510.0" text-anchor="middle">7.6 MiB</text><line x1="480.5" y1="490.0" x2="480.5" y2="60.0" stroke="#dddddd"/><line x1="580.7" y1="490.0" x2="580.7" y2="496.0" stroke="black"/><text x="580.7" y="510.0" text-anchor="middle">9.5 MiB</text><line x1="580.7" y1="490.0" x2="580.7" y2="60.0" stroke="#dddddd"/><line x1="680.8" y1="490.0" x2="680.8" y2="496.0" stroke="black"/><text x="680.8" y="510.0" text-anchor="middle">11.4 MiB</text><line x1="680.8" y1="490.0" x2="680.8" y2="60.0" stroke="#dddddd"/><line x1="781.0" y1="490.0" x2="781.0" y2="496.0" stroke="black"/><text x="781.0" y="510.0" text-anchor="middle">13.4 MiB</text><line x1="781.0" y1="490.0" x2="781.0" y2="60.0" stroke="#dddddd"/><line x1="881.1" y1="490.0" x2="881.1" y2="496.0" stroke="black"/><text x="881.1" y="510.0" text-anchor="middle">15.3 MiB</text><line x1="881.1" y1="490.0" x2="881.1" y2="60.0" stroke="#dddddd"/><line x1="981.2" y1="490.0" x2="981.2" y2="496.0" stroke="black"/><text x="981.2" y="510.0" text-anchor="middle">17.2 MiB</text><line x1="981.2" y1="490.0" x2="981.2" y2="60.0" stroke="#dddddd"/><line x1="74.0" y1="490.0" x2="80.0" y2="490.0" stroke="black"/><text x="72.0" y="494.0" text-anchor="end">0.00</text><line x1="80.0" y1="490.0" x2="920.0" y2="490.0" stroke="#ededed"/><line x1="74.0" y1="395.4" x2="80.0" y2="395.4" stroke="black"/><text x="72.0" y="399.4" text-anchor="end">200</text><line x1="80.0" y1="395.4" x2="920.0" y2="395.4" stroke="#ededed"/><line x1="74.0" y1="300.9" x2="80.0" y2="300.9" stroke="black"/><text x="72.0" y="304.9" text-anchor="end">400</text><line x1="80.0" y1="300.9" x2="920.0" y2="300.9" stroke="#ededed"/><line x1="74.0" y1="206.3" x2="80.0" y2="206.3" stroke="black"/><text x="72.0" y="210.3" text-anchor="end">600</text><line x1="80.0" y1="206.3" x2="920.0" y2="206.3" stroke="#ededed"/><line x1="74.0" y1="111.7" x2="80.0" y2="111.7" stroke="black"/><text x="72.0" y="115.7" text-anchor="end">800</text><line x1="80.0" y1="111.7" x2="920.0" y2="111.7" stroke="#ededed"/><line x1="74.0" y1="17.2" x2="80.0" y2="17.2" stroke="black"/><text x="72.0" y="21.2" text-anchor="end">1.0k</text><line x1="80.0" y1="17.2" x2="920.0" y2="17.2" stroke="#ededed"/><polyline fill="none" stroke="#d62728" stroke-width="2" points="80.0,490.0 80.0,490.0 80.1,471.5 80.2,440.3 80.8,331.1 83.3,60.0 93.1,331.1 106.2,335.0 132.5,317.3 185.0,304.9 290.0,268.1 920.0,231.8 "/><circle cx="80.0" cy="490.0" r="3" fill="#d62728"/><circle cx="80.0" cy="490.0" r="3" fill="#d62728"/><circle cx="80.1" cy="471.5" r="3" fill="#d62728"/><circle cx="80.2" cy="440.3" r="3" fill="#d62728"/><circle cx="80.8" cy="331.1" r="3" fill="#d62728"/><circle cx="83.3" cy="60.0" r="3" fill="#d62728"/><circle cx="93.1" cy="331.1" r="3" fill="#d62728"/><circle cx="106.2" cy="335.0" r="3" fill="#d62728"/><circle cx="132.5" cy="317.3" r="3" fill="#d62728"/><circle cx="185.0" cy="304.9" r="3" fill="#d62728"/><circle cx="290.0" cy="268.1" r="3" fill="#d62728"/><circle cx="920.0" cy="231.8" r="3" fill="#d62728"/><polyline fill="none" stroke="#1f77b4" stroke-width="2" points="80.0,490.0 80.0,490.0 80.1,477.1 80.2,451.3 80.8,398.2 83.3,298.1 93.1,420.9 106.2,415.1 132.5,401.6 185.0,374.7 290.0,359.9 920.0,372.6 "/><circle cx="80.0" cy="490.0" r="3" fill="#1f77b4"/><circle cx="80.0" cy="490.0" r="3" fill="#1f77b4"/><circle cx="80.1" cy="477.1" r="3" fill="#1f77b4"/><circle cx="80.2" cy="451.3" r="3" fill="#1f77b4"/><circle cx="80.8" cy="398.2" r="3" fill="#1f77b4"/><circle cx="83.3" cy="298.1" r="3" fill="#1f77b4"/><circle cx="93.1" cy="420.9" r="3" fill="#1f77b4"/><circle cx="106.2" cy="415.1" r="3" fill="#1f77b4"/><circle cx="132.5" cy="401.6" r="3" fill="#1f77b4"/><circle cx="185.0" cy="374.7" r="3" fill="#1f77b4"/><circle cx="290.0" cy="359.9" r="3" fill="#1f77b4"/><circle cx="920.0" cy="372.6" r="3" fill="#1f77b4"/><rect x="770.0" y="70.0" width="140" height="54.0" fill="white" stroke="#ccc"/><line x1="780.0" y1="85.0" x2="800.0" y2="85.0" stroke="#d62728" stroke-width="3"/><text x="810.0" y="88.0">shm</text><line x1="780.0" y1="107.0" x2="800.0" y2="107.0" stroke="#1f77b4" stroke-width="3"/><text x="810.0" y="110.0">tcp</text></svg>