<svg xmlns="http://www.w3.org/2000/svg" width="960" height="560" viewBox="0 0 960 560"><style>text{font-family:Arial,sans-serif;font-size:12px;} .title{font-size:16px;font-weight:bold;}</style><rect width="100%" height="100%" fill="white"/><text x="480.0" y="30.0" class="title" text-anchor="middle">Streaming ping-pong latency</text><text x="480.0" y="540.0" text-anchor="middle">Payload size</text><text x="15" y="280.0" transform="rotate(-90 15,280.0)" text-anchor="middle">Avg latency (µs)</text><line x1="80.0" y1="490.0" x2="920.0" y2="490.0" stroke="black"/><line x1="80.0" y1="490.0" x2="80.0" y2="60.0" stroke="black"/><line x1="80.0" y1="490.0" x2="80.0" y2="496.0" stroke="black"/><text x="80.0" y="510.0" text-anchor="middle">0 B</text><line x1="80.0" y1="490.0" x2="80.0" y2="60.0" stroke="#dddddd"/><line x1="180.1" y1="490.0" x2="180.1" y2="496.0" stroke="black"/><text x="180.1" y="510.0" text-anchor="middle">1.9 MiB</text><line x1="180.1" y1="490.0" x2="180.1" y2="60.0" stroke="#dddddd"/><line x1="280.3" y1="490.0" x2="280.3" y2="496.0" stroke="black"/><text x="280.3" y="510.0" text-anchor="middle">3.8 MiB</text><line x1="280.3" y1="490.0" x2="280.3" y2="60.0" stroke="#dddddd"/><line x1="380.4" y1="490.0" x2="380.4" y2="496.0" stroke="black"/><text x="380.4" y="510.0" text-anchor="middle">5.7 MiB</text><line x1="380.4" y1="490.0" x2="380.4" y2="60.0" stroke="#dddddd"/><line x1="480.5" y1="490.0" x2="480.5" y2="496.0" stroke="black"/><text x="480.5" y="510.0" text-anchor="middle">7.6 MiB</text><line x1="480.5" y1="490.0" x2="480.5" y2="60.0" stroke="#dddddd"/><line x1="580.7" y1="490.0" x2="580.7" y2="496.0" stroke="black"/><text x="580.7" y="510.0" text-anchor="middle">9.5 MiB</text><line x1="580.7" y1="490.0" x2="580.7" y2="60.0" stroke="#dddddd"/><line x1="680.8" y1="490.0" x2="680.8" y2="496.0" stroke="black"/><text x="680.8" y="510.0" text-anchor="middle">11.4 MiB</text><line x1="680.8" y1="490.0" x2="680.8" y2="60.0" stroke="#dddddd"/><line x1="781.0" y1="490.0" x2="781.0" y2="496.0" stroke="black"/><text x="781.0" y="510.0" text-anchor="middle">13.4 MiB</text><line x1="781.0" y1="490.0" x2="781.0" y2="60.0" stroke="#dddddd"/><line x1="881.1" y1="490.0" x2="881.1" y2="496.0" stroke="black"/><text x="881.1" y="510.0" text-anchor="middle">15.3 MiB</text><line x1="881.1" y1="490.0" x2="881.1" y2="60.0" stroke="#dddddd"/><line x1="981.2" y1="490.0" x2="981.2" y2="496.0" stroke="black"/><text x="981.2" y="510.0" text-anchor="middle">17.2 MiB</text><line x1="981.2" y1="490.0" x2="981.2" y2="60.0" stroke="#dddddd"/><line x1="74.0" y1="490.0" x2="80.0" y2="490.0" stroke="black"/><text x="72.0" y="494.0" text-anchor="end">0.00</text><line x1="80.0" y1="490.0" x2="920.0" y2="490.0" stroke="#ededed"/><line x1="74.0" y1="423.3" x2="80.0" y2="423.3" stroke="black"/><text x="72.0" y="427.3" text-anchor="end">20.0k</text><line x1="80.0" y1="423.3" x2="920.0" y2="423.3" stroke="#ededed"/><line x1="74.0" y1="356.5" x2="80.0" y2="356.5" stroke="black"/><text x="72.0" y="360.5" text-anchor="end">40.0k</text><line x1="80.0" y1="356.5" x2="920.0" y2="356.5" stroke="#ededed"/><line x1="74.0" y1="289.8" x2="80.0" y2="289.8" stroke="black"/><text x="72.0" y="293.8" text-anchor="end">60.0k</text><line x1="80.0" y1="289.8" x2="920.0" y2="289.8" stroke="#ededed"/><line x1="74.0" y1="223.1" x2="80.0" y2="223.1" stroke="black"/><text x="72.0" y="227.1" text-anchor="end">80.0k</text><line x1="80.0" y1="223.1" x2="920.0" y2="223.1" stroke="#ededed"/><line x1="74.0" y1="156.3" x2="80.0" y2="156.3" stroke="black"/><text x="72.0" y="160.3" text-anchor="end">100.0k</text><line x1="80.0" y1="156.3" x2="920.0" y2="156.3" stroke="#ededed"/><line x1="74.0" y1="89.6" x2="80.0" y2="89.6" stroke="black"/><text x="72.0" y="93.6" text-anchor="end">120.0k</text><line x1="80.0" y1="89.6" x2="920.0" y2="89.6" stroke="#ededed"/><line x1="74.0" y1="22.8" x2="80.0" y2="22.8" stroke="black"/><text x="72.0" y="26.8" text-anchor="end">140.0k</text><line x1="80.0" y1="22.8" x2="920.0" y2="22.8" stroke="#ededed"/><polyline fill="none" stroke="#d62728" stroke-width="2" points="80.0,489.9 80.0,489.8 80.1,489.8 80.2,489.8 80.8,489.7 83.3,489.5 93.1,485.0 106.2,479.8 132.5,471.7 185.0,455.9 290.0,433.1 920.0,294.4 "/><circle cx="80.0" cy="489.9" r="3" fill="#d62728"/><circle cx="80.0" cy="489.8" r="3" fill="#d62728"/><circle cx="80.1" cy="489.8" r="3" fill="#d62728"/><circle cx="80.2" cy="489.8" r="3" fill="#d62728"/><circle cx="80.8" cy="489.7" r="3" fill="#d62728"/><circle cx="83.3" cy="489.5" r="3" fill="#d62728"/><circle cx="93.1" cy="485.0" r="3" fill="#d62728"/><circle cx="106.2" cy="479.8" r="3" fill="#d62728"/><circle cx="132.5" cy="471.7" r="3" fill="#d62728"/><circle cx="185.0" cy="455.9" r="3" fill="#d62728"/><circle cx="290.0" cy="433.1" r="3" fill="#d62728"/><circle cx="920.0" cy="294.4" r="3" fill="#d62728"/><polyline fill="none" stroke="#1f77b4" stroke-width="2" points="80.0,489.8 80.0,489.8 80.1,489.8 80.2,489.7 80.8,489.5 83.3,489.0 93.1,478.6 106.2,468.9 132.5,454.3 185.0,435.3 290.0,393.0 920.0,60.0 "/><circle cx="80.0" cy="489.8" r="3" fill="#1f77b4"/><circle cx="80.0" cy="489.8" r="3" fill="#1f77b4"/><circle cx="80.1" cy="489.8" r="3" fill="#1f77b4"/><circle cx="80.2" cy="489.7" r="3" fill="#1f77b4"/><circle cx="80.8" cy="489.5" r="3" fill="#1f77b4"/><circle cx="83.3" cy="489.0" r="3" fill="#1f77b4"/><circle cx="93.1" cy="478.6" r="3" fill="#1f77b4"/><circle cx="106.2" cy="468.9" r="3" fill="#1f77b4"/><circle cx="132.5" cy="454.3" r="3" fill="#1f77b4"/><circle cx="185.0" cy="435.3" r="3" fill="#1f77b4"/><circle cx="290.0" cy="393.0" r="3" fill="#1f77b4"/><circle cx="920.0" cy="60.0" r="3" fill="#1f77b4"/><rect x="770.0" y="70.0" width="140" height="54.0" fill="white" stroke="#ccc"/><line x1="780.0" y1="85.0" x2="800.0" y2="85.0" stroke="#d62728" stroke-width="3"/><text x="810.0" y="88.0">shm</text><line x1="780.0" y1="107.0" x2="800.0" y2="107.0" stroke="#1f77b4" stroke-width="3"/><text x="810.0" y="110.0">tcp</text></svg>