<svg xmlns="http://www.w3.org/2000/svg" width="960" height="560" viewBox="0 0 960 560"><style>text{font-family:Arial,sans-serif;font-size:12px;} .title{font-size:16px;font-weight:bold;}</style><rect width="100%" height="100%" fill="white"/><text x="480.0" y="30.0" class="title" text-anchor="middle">Streaming throughput</text><text x="480.0" y="540.0" text-anchor="middle">Payload size</text><text x="15" y="280.0" transform="rotate(-90 15,280.0)" text-anchor="middle">Throughput (MiB/s)</text><line x1="80.0" y1="490.0" x2="920.0" y2="490.0" stroke="black"/><line x1="80.0" y1="490.0" x2="80.0" y2="60.0" stroke="black"/><line x1="80.0" y1="490.0" x2="80.0" y2="496.0" stroke="black"/><text x="80.0" y="510.0" text-anchor="middle">0 B</text><line x1="80.0" y1="490.0" x2="80.0" y2="60.0" stroke="#dddddd"/><line x1="205.2" y1="490.0" x2="205.2" y2="496.0" stroke="black"/><text x="205.2" y="510.0" text-anchor="middle">19.1 MiB</text><line x1="205.2" y1="490.0" x2="205.2" y2="60.0" stroke="#dddddd"/><line x1="330.3" y1="490.0" x2="330.3" y2="496.0" stroke="black"/><text x="330.3" y="510.0" text-anchor="middle">38.1 MiB</text><line x1="330.3" y1="490.0" x2="330.3" y2="60.0" stroke="#dddddd"/><line x1="455.5" y1="490.0" x2="455.5" y2="496.0" stroke="black"/><text x="455.5" y="510.0" text-anchor="middle">57.2 MiB</text><line x1="455.5" y1="490.0" x2="455.5" y2="60.0" stroke="#dddddd"/><line x1="580.7" y1="490.0" x2="580.7" y2="496.0" stroke="black"/><text x="580.7" y="510.0" text-anchor="middle">76.3 MiB</text><line x1="580.7" y1="490.0" x2="580.7" y2="60.0" stroke="#dddddd"/><line x1="705.8" y1="490.0" x2="705.8" y2="496.0" stroke="black"/><text x="705.8" y="510.0" text-anchor="middle">95.4 MiB</text><line x1="705.8" y1="490.0" x2="705.8" y2="60.0" stroke="#dddddd"/><line x1="831.0" y1="490.0" x2="831.0" y2="496.0" stroke="black"/><text x="831.0" y="510.0" text-anchor="middle">114.4 MiB</text><line x1="831.0" y1="490.0" x2="831.0" y2="60.0" stroke="#dddddd"/><line x1="956.2" y1="490.0" x2="956.2" y2="496.0" stroke="black"/><text x="956.2" y="510.0" text-anchor="middle">133.5 MiB</text><line x1="956.2" y1="490.0" x2="956.2" y2="60.0" stroke="#dddddd"/><line x1="74.0" y1="490.0" x2="80.0" y2="490.0" stroke="black"/><text x="72.0" y="494.0" text-anchor="end">0.00</text><line x1="80.0" y1="490.0" x2="920.0" y2="490.0" stroke="#ededed"/><line x1="74.0" y1="427.3" x2="80.0" y2="427.3" stroke="black"/><text x="72.0" y="431.3" text-anchor="end">100</text><line x1="80.0" y1="427.3" x2="920.0" y2="427.3" stroke="#ededed"/><line x1="74.0" y1="364.6" x2="80.0" y2="364.6" stroke="black"/><text x="72.0" y="368.6" text-anchor="end">200</text><line x1="80.0" y1="364.6" x2="920.0" y2="364.6" stroke="#ededed"/><line x1="74.0" y1="301.9" x2="80.0" y2="301.9" stroke="black"/><text x="72.0" y="305.9" text-anchor="end">300</text><line x1="80.0" y1="301.9" x2="920.0" y2="301.9" stroke="#ededed"/><line x1="74.0" y1="239.2" x2="80.0" y2="239.2" stroke="black"/><text x="72.0" y="243.2" text-anchor="end">400</text><line x1="80.0" y1="239.2" x2="920.0" y2="239.2" stroke="#ededed"/><line x1="74.0" y1="176.5" x2="80.0" y2="176.5" stroke="black"/><text x="72.0" y="180.5" text-anchor="end">500</text><line x1="80.0" y1="176.5" x2="920.0" y2="176.5" stroke="#ededed"/><line x1="74.0" y1="113.9" x2="80.0" y2="113.9" stroke="black"/><text x="72.0" y="117.9" text-anchor="end">600</text><line x1="80.0" y1="113.9" x2="920.0" y2="113.9" stroke="#ededed"/><line x1="74.0" y1="51.2" x2="80.0" y2="51.2" stroke="black"/><text x="72.0" y="55.2" text-anchor="end">700</text><line x1="80.0" y1="51.2" x2="920.0" y2="51.2" stroke="#ededed"/><polyline fill="none" stroke="#d62728" stroke-width="2" points="80.0,490.0 80.0,490.0 80.0,459.7 80.0,486.0 80.1,470.8 80.4,225.7 81.6,131.4 83.3,183.9 86.6,283.7 93.1,100.4 106.2,137.1 185.0,60.0 290.0,60.7 500.0,72.0 920.0,67.8 "/><circle cx="80.0" cy="490.0" r="3" fill="#d62728"/><circle cx="80.0" cy="490.0" r="3" fill="#d62728"/><circle cx="80.0" cy="459.7" r="3" fill="#d62728"/><circle cx="80.0" cy="486.0" r="3" fill="#d62728"/><circle cx="80.1" cy="470.8" r="3" fill="#d62728"/><circle cx="80.4" cy="225.7" r="3" fill="#d62728"/><circle cx="81.6" cy="131.4" r="3" fill="#d62728"/><circle cx="83.3" cy="183.9" r="3" fill="#d62728"/><circle cx="86.6" cy="283.7" r="3" fill="#d62728"/><circle cx="93.1" cy="100.4" r="3" fill="#d62728"/><circle cx="106.2" cy="137.1" r="3" fill="#d62728"/><circle cx="185.0" cy="60.0" r="3" fill="#d62728"/><circle cx="290.0" cy="60.7" r="3" fill="#d62728"/><circle cx="500.0" cy="72.0" r="3" fill="#d62728"/><circle cx="920.0" cy="67.8" r="3" fill="#d62728"/><polyline fill="none" stroke="#1f77b4" stroke-width="2" points="80.0,490.0 80.0,490.0 80.0,483.7 80.0,462.6 80.1,409.0 80.4,329.7 81.6,415.8 83.3,388.3 86.6,375.0 93.1,353.1 106.2,336.2 185.0,311.6 290.0,301.8 500.0,305.1 920.0,381.8 "/><circle cx="80.0" cy="490.0" r="3" fill="#1f77b4"/><circle cx="80.0" cy="490.0" r="3" fill="#1f77b4"/><circle cx="80.0" cy="483.7" r="3" fill="#1f77b4"/><circle cx="80.0" cy="462.6" r="3" fill="#1f77b4"/><circle cx="80.1" cy="409.0" r="3" fill="#1f77b4"/><circle cx="80.4" cy="329.7" r="3" fill="#1f77b4"/><circle cx="81.6" cy="415.8" r="3" fill="#1f77b4"/><circle cx="83.3" cy="388.3" r="3" fill="#1f77b4"/><circle cx="86.6" cy="375.0" r="3" fill="#1f77b4"/><circle cx="93.1" cy="353.1" r="3" fill="#1f77b4"/><circle cx="106.2" cy="336.2" r="3" fill="#1f77b4"/><circle cx="185.0" cy="311.6" r="3" fill="#1f77b4"/><circle cx="290.0" cy="301.8" r="3" fill="#1f77b4"/><circle cx="500.0" cy="305.1" r="3" fill="#1f77b4"/><circle cx="920.0" cy="381.8" r="3" fill="#1f77b4"/><rect x="770.0" y="70.0" width="140" height="54.0" fill="white" stroke="#ccc"/><line x1="780.0" y1="85.0" x2="800.0" y2="85.0" stroke="#d62728" stroke-width="3"/><text x="810.0" y="88.0">shm</text><line x1="780.0" y1="107.0" x2="800.0" y2="107.0" stroke="#1f77b4" stroke-width="3"/><text x="810.0" y="110.0">tcp</text></svg>