<svg xmlns="http://www.w3.org/2000/svg" width="960" height="560" viewBox="0 0 960 560"><style>text{font-family:Arial,sans-serif;font-size:12px;} .title{font-size:16px;font-weight:bold;}</style><rect width="100%" height="100%" fill="white"/><text x="480.0" y="30.0" class="title" text-anchor="middle">Streaming throughput</text><text x="480.0" y="540.0" text-anchor="middle">Payload size</text><text x="15" y="280.0" transform="rotate(-90 15,280.0)" text-anchor="middle">Throughput (MiB/s)</text><line x1="80.0" y1="490.0" x2="920.0" y2="490.0" stroke="black"/><line x1="80.0" y1="490.0" x2="80.0" y2="60.0" stroke="black"/><line x1="80.0" y1="490.0" x2="80.0" y2="496.0" stroke="black"/><text x="80.0" y="510.0" text-anchor="middle">0 B</text><line x1="80.0" y1="490.0" x2="80.0" y2="60.0" stroke="#dddddd"/><line x1="280.3" y1="490.0" x2="280.3" y2="496.0" stroke="black"/><text x="280.3" y="510.0" text-anchor="middle">488.3 KiB</text><line x1="280.3" y1="490.0" x2="280.3" y2="60.0" stroke="#dddddd"/><line x1="480.5" y1="490.0" x2="480.5" y2="496.0" stroke="black"/><text x="480.5" y="510.0" text-anchor="middle">976.6 KiB</text><line x1="480.5" y1="490.0" x2="480.5" y2="60.0" stroke="#dddddd"/><line x1="680.8" y1="490.0" x2="680.8" y2="496.0" stroke="black"/><text x="680.8" y="510.0" text-anchor="middle">1.4 MiB</text><line x1="680.8" y1="490.0" x2="680.8" y2="60.0" stroke="#dddddd"/><line x1="881.1" y1="490.0" x2="881.1" y2="496.0" stroke="black"/><text x="881.1" y="510.0" text-anchor="middle">1.9 MiB</text><line x1="881.1" y1="490.0" x2="881.1" y2="60.0" stroke="#dddddd"/><line x1="1081.4" y1="490.0" x2="1081.4" y2="496.0" stroke="black"/><text x="1081.4" y="510.0" text-anchor="middle">2.4 MiB</text><line x1="1081.4" y1="490.0" x2="1081.4" y2="60.0" stroke="#dddddd"/><line x1="74.0" y1="490.0" x2="80.0" y2="490.0" stroke="black"/><text x="72.0" y="494.0" text-anchor="end">0.00</text><line x1="80.0" y1="490.0" x2="920.0" y2="490.0" stroke="#ededed"/><line x1="74.0" y1="409.6" x2="80.0" y2="409.6" stroke="black"/><text x="72.0" y="413.6" text-anchor="end">200</text><line x1="80.0" y1="409.6" x2="920.0" y2="409.6" stroke="#ededed"/><line x1="74.0" y1="329.1" x2="80.0" y2="329.1" stroke="black"/><text x="72.0" y="333.1" text-anchor="end">400</text><line x1="80.0" y1="329.1" x2="920.0" y2="329.1" stroke="#ededed"/><line x1="74.0" y1="248.7" x2="80.0" y2="248.7" stroke="black"/><text x="72.0" y="252.7" text-anchor="end">600</text><line x1="80.0" y1="248.7" x2="920.0" y2="248.7" stroke="#ededed"/><line x1="74.0" y1="168.2" x2="80.0" y2="168.2" stroke="black"/><text x="72.0" y="172.2" text-anchor="end">800</text><line x1="80.0" y1="168.2" x2="920.0" y2="168.2" stroke="#ededed"/><line x1="74.0" y1="87.8" x2="80.0" y2="87.8" stroke="black"/><text x="72.0" y="91.8" text-anchor="end">1.0k</text><line x1="80.0" y1="87.8" x2="920.0" y2="87.8" stroke="#ededed"/><line x1="74.0" y1="7.3" x2="80.0" y2="7.3" stroke="black"/><text x="72.0" y="11.3" text-anchor="end">1.2k</text><line x1="80.0" y1="7.3" x2="920.0" y2="7.3" stroke="#ededed"/><polyline fill="none" stroke="#d62728" stroke-width="2" points="80.0,490.0 80.0,490.0 80.4,457.3 81.6,435.9 86.6,327.9 106.2,60.0 185.0,330.7 290.0,340.2 500.0,317.6 920.0,305.3 "/><circle cx="80.0" cy="490.0" r="3" fill="#d62728"/><circle cx="80.0" cy="490.0" r="3" fill="#d62728"/><circle cx="80.4" cy="457.3" r="3" fill="#d62728"/><circle cx="81.6" cy="435.9" r="3" fill="#d62728"/><circle cx="86.6" cy="327.9" r="3" fill="#d62728"/><circle cx="106.2" cy="60.0" r="3" fill="#d62728"/><circle cx="185.0" cy="330.7" r="3" fill="#d62728"/><circle cx="290.0" cy="340.2" r="3" fill="#d62728"/><circle cx="500.0" cy="317.6" r="3" fill="#d62728"/><circle cx="920.0" cy="305.3" r="3" fill="#d62728"/><polyline fill="none" stroke="#1f77b4" stroke-width="2" points="80.0,490.0 80.0,490.0 80.4,480.4 81.6,462.5 86.6,392.9 106.2,320.8 185.0,435.3 290.0,430.3 500.0,396.6 920.0,405.3 "/><circle cx="80.0" cy="490.0" r="3" fill="#1f77b4"/><circle cx="80.0" cy="490.0" r="3" fill="#1f77b4"/><circle cx="80.4" cy="480.4" r="3" fill="#1f77b4"/><circle cx="81.6" cy="462.5" r="3" fill="#1f77b4"/><circle cx="86.6" cy="392.9" r="3" fill="#1f77b4"/><circle cx="106.2" cy="320.8" r="3" fill="#1f77b4"/><circle cx="185.0" cy="435.3" r="3" fill="#1f77b4"/><circle cx="290.0" cy="430.3" r="3" fill="#1f77b4"/><circle cx="500.0" cy="396.6" r="3" fill="#1f77b4"/><circle cx="920.0" cy="405.3" r="3" fill="#1f77b4"/><rect x="770.0" y="70.0" width="140" height="54.0" fill="white" stroke="#ccc"/><line x1="780.0" y1="85.0" x2="800.0" y2="85.0" stroke="#d62728" stroke-width="3"/><text x="810.0" y="88.0">shm</text><line x1="780.0" y1="107.0" x2="800.0" y2="107.0" stroke="#1f77b4" stroke-width="3"/><text x="810.0" y="110.0">tcp</text></svg>