<svg xmlns="http://www.w3.org/2000/svg" width="960" height="560" viewBox="0 0 960 560"><style>text{font-family:Arial,sans-serif;font-size:12px;} .title{font-size:16px;font-weight:bold;}</style><rect width="100%" height="100%" fill="white"/><text x="480.0" y="30.0" class="title" text-anchor="middle">Unary ping-pong latency</text><text x="480.0" y="540.0" text-anchor="middle">Payload size</text><text x="15" y="280.0" transform="rotate(-90 15,280.0)" text-anchor="middle">Avg latency (µs)</text><line x1="80.0" y1="490.0" x2="920.0" y2="490.0" stroke="black"/><line x1="80.0" y1="490.0" x2="80.0" y2="60.0" stroke="black"/><line x1="80.0" y1="490.0" x2="80.0" y2="496.0" stroke="black"/><text x="80.0" y="510.0" text-anchor="middle">0 B</text><line x1="80.0" y1="490.0" x2="80.0" y2="60.0" stroke="#dddddd"/><line x1="280.3" y1="490.0" x2="280.3" y2="496.0" stroke="black"/><text x="280.3" y="510.0" text-anchor="middle">488.3 KiB</text><line x1="280.3" y1="490.0" x2="280.3" y2="60.0" stroke="#dddddd"/><line x1="480.5" y1="490.0" x2="480.5" y2="496.0" stroke="black"/><text x="480.5" y="510.0" text-anchor="middle">976.6 KiB</text><line x1="480.5" y1="490.0" x2="480.5" y2="60.0" stroke="#dddddd"/><line x1="680.8" y1="490.0" x2="680.8" y2="496.0" stroke="black"/><text x="680.8" y="510.0" text-anchor="middle">1.4 MiB</text><line x1="680.8" y1="490.0" x2="680.8" y2="60.0" stroke="#dddddd"/><line x1="881.1" y1="490.0" x2="881.1" y2="496.0" stroke="black"/><text x="881.1" y="510.0" text-anchor="middle">1.9 MiB</text><line x1="881.1" y1="490.0" x2="881.1" y2="60.0" stroke="#dddddd"/><line x1="1081.4" y1="490.0" x2="1081.4" y2="496.0" stroke="black"/><text x="1081.4" y="510.0" text-anchor="middle">2.4 MiB</text><line x1="1081.4" y1="490.0" x2="1081.4" y2="60.0" stroke="#dddddd"/><line x1="74.0" y1="490.0" x2="80.0" y2="490.0" stroke="black"/><text x="72.0" y="494.0" text-anchor="end">0.00</text><line x1="80.0" y1="490.0" x2="920.0" y2="490.0" stroke="#ededed"/><line x1="74.0" y1="424.5" x2="80.0" y2="424.5" stroke="black"/><text x="72.0" y="428.5" text-anchor="end">2.0k</text><line x1="80.0" y1="424.5" x2="920.0" y2="424.5" stroke="#ededed"/><line x1="74.0" y1="359.1" x2="80.0" y2="359.1" stroke="black"/><text x="72.0" y="363.1" text-anchor="end">4.0k</text><line x1="80.0" y1="359.1" x2="920.0" y2="359.1" stroke="#ededed"/><line x1="74.0" y1="293.6" x2="80.0" y2="293.6" stroke="black"/><text x="72.0" y="297.6" text-anchor="end">6.0k</text><line x1="80.0" y1="293.6" x2="920.0" y2="293.6" stroke="#ededed"/><line x1="74.0" y1="228.1" x2="80.0" y2="228.1" stroke="black"/><text x="72.0" y="232.1" text-anchor="end">8.0k</text><line x1="80.0" y1="228.1" x2="920.0" y2="228.1" stroke="#ededed"/><line x1="74.0" y1="162.6" x2="80.0" y2="162.6" stroke="black"/><text x="72.0" y="166.6" text-anchor="end">10.0k</text><line x1="80.0" y1="162.6" x2="920.0" y2="162.6" stroke="#ededed"/><line x1="74.0" y1="97.2" x2="80.0" y2="97.2" stroke="black"/><text x="72.0" y="101.2" text-anchor="end">12.0k</text><line x1="80.0" y1="97.2" x2="920.0" y2="97.2" stroke="#ededed"/><line x1="74.0" y1="31.7" x2="80.0" y2="31.7" stroke="black"/><text x="72.0" y="35.7" text-anchor="end">14.0k</text><line x1="80.0" y1="31.7" x2="920.0" y2="31.7" stroke="#ededed"/><polyline fill="none" stroke="#d62728" stroke-width="2" points="80.0,488.4 80.0,488.2 80.4,488.0 81.6,487.1 86.6,485.3 106.2,478.9 185.0,466.1 290.0,416.9 500.0,332.2 920.0,212.7 "/><circle cx="80.0" cy="488.4" r="3" fill="#d62728"/><circle cx="80.0" cy="488.2" r="3" fill="#d62728"/><circle cx="80.4" cy="488.0" r="3" fill="#d62728"/><circle cx="81.6" cy="487.1" r="3" fill="#d62728"/><circle cx="86.6" cy="485.3" r="3" fill="#d62728"/><circle cx="106.2" cy="478.9" r="3" fill="#d62728"/><circle cx="185.0" cy="466.1" r="3" fill="#d62728"/><circle cx="290.0" cy="416.9" r="3" fill="#d62728"/><circle cx="500.0" cy="332.2" r="3" fill="#d62728"/><circle cx="920.0" cy="212.7" r="3" fill="#d62728"/><polyline fill="none" stroke="#1f77b4" stroke-width="2" points="80.0,484.9 80.0,484.7 80.4,484.7 81.6,484.4 86.6,483.6 106.2,475.9 185.0,442.3 290.0,318.2 500.0,202.0 920.0,60.0 "/><circle cx="80.0" cy="484.9" r="3" fill="#1f77b4"/><circle cx="80.0" cy="484.7" r="3" fill="#1f77b4"/><circle cx="80.4" cy="484.7" r="3" fill="#1f77b4"/><circle cx="81.6" cy="484.4" r="3" fill="#1f77b4"/><circle cx="86.6" cy="483.6" r="3" fill="#1f77b4"/><circle cx="106.2" cy="475.9" r="3" fill="#1f77b4"/><circle cx="185.0" cy="442.3" r="3" fill="#1f77b4"/><circle cx="290.0" cy="318.2" r="3" fill="#1f77b4"/><circle cx="500.0" cy="202.0" r="3" fill="#1f77b4"/><circle cx="920.0" cy="60.0" r="3" fill="#1f77b4"/><rect x="770.0" y="70.0" width="140" height="54.0" fill="white" stroke="#ccc"/><line x1="780.0" y1="85.0" x2="800.0" y2="85.0" stroke="#d62728" stroke-width="3"/><text x="810.0" y="88.0">shm</text><line x1="780.0" y1="107.0" x2="800.0" y2="107.0" stroke="#1f77b4" stroke-width="3"/><text x="810.0" y="110.0">tcp</text></svg>