<svg xmlns="http://www.w3.org/2000/svg" width="960" height="560" viewBox="0 0 960 560"><style>text{font-family:Arial,sans-serif;font-size:12px;} .title{font-size:16px;font-weight:bold;}</style><rect width="100%" height="100%" fill="white"/><text x="480.0" y="30.0" class="title" text-anchor="middle">Streaming ping-pong latency</text><text x="480.0" y="540.0" text-anchor="middle">Payload size</text><text x="15" y="280.0" transform="rotate(-90 15,280.0)" text-anchor="middle">Avg latency (µs)</text><line x1="80.0" y1="490.0" x2="920.0" y2="490.0" stroke="black"/><line x1="80.0" y1="490.0" x2="80.0" y2="60.0" stroke="black"/><line x1="80.0" y1="490.0" x2="80.0" y2="496.0" stroke="black"/><text x="80.0" y="510.0" text-anchor="middle">0 B</text><line x1="80.0" y1="490.0" x2="80.0" y2="60.0" stroke="#dddddd"/><line x1="180.1" y1="490.0" x2="180.1" y2="496.0" stroke="black"/><text x="180.1" y="510.0" text-anchor="middle">1.9 MiB</text><line x1="180.1" y1="490.0" x2="180.1" y2="60.0" stroke="#dddddd"/><line x1="280.3" y1="490.0" x2="280.3" y2="496.0" stroke="black"/><text x="280.3" y="510.0" text-anchor="middle">3.8 MiB</text><line x1="280.3" y1="490.0" x2="280.3" y2="60.0" stroke="#dddddd"/><line x1="380.4" y1="490.0" x2="380.4" y2="496.0" stroke="black"/><text x="380.4" y="510.0" text-anchor="middle">5.7 MiB</text><line x1="380.4" y1="490.0" x2="380.4" y2="60.0" stroke="#dddddd"/><line x1="480.5" y1="490.0" x2="480.5" y2="496.0" stroke="black"/><text x="480.5" y="510.0" text-anchor="middle">7.6 MiB</text><line x1="480.5" y1="490.0" x2="480.5" y2="60.0" stroke="#dddddd"/><line x1="580.7" y1="490.0" x2="580.7" y2="496.0" stroke="black"/><text x="580.7" y="510.0" text-anchor="middle">9.5 MiB</text><line x1="580.7" y1="490.0" x2="580.7" y2="60.0" stroke="#dddddd"/><line x1="680.8" y1="490.0" x2="680.8" y2="496.0" stroke="black"/><text x="680.8" y="510.0" text-anchor="middle">11.4 MiB</text><line x1="680.8" y1="490.0" x2="680.8" y2="60.0" stroke="#dddddd"/><line x1="781.0" y1="490.0" x2="781.0" y2="496.0" stroke="black"/><text x="781.0" y="510.0" text-anchor="middle">13.4 MiB</text><line x1="781.0" y1="490.0" x2="781.0" y2="60.0" stroke="#dddddd"/><line x1="881.1" y1="490.0" x2="881.1" y2="496.0" stroke="black"/><text x="881.1" y="510.0" text-anchor="middle">15.3 MiB</text><line x1="881.1" y1="490.0" x2="881.1" y2="60.0" stroke="#dddddd"/><line x1="981.2" y1="490.0" x2="981.2" y2="496.0" stroke="black"/><text x="981.2" y="510.0" text-anchor="middle">17.2 MiB</text><line x1="981.2" y1="490.0" x2="981.2" y2="60.0" stroke="#dddddd"/><line x1="74.0" y1="490.0" x2="80.0" y2="490.0" stroke="black"/><text x="72.0" y="494.0" text-anchor="end">0.00</text><line x1="80.0" y1="490.0" x2="920.0" y2="490.0" stroke="#ededed"/><line x1="74.0" y1="437.8" x2="80.0" y2="437.8" stroke="black"/><text x="72.0" y="441.8" text-anchor="end">20.0k</text><line x1="80.0" y1="437.8" x2="920.0" y2="437.8" stroke="#ededed"/><line x1="74.0" y1="385.7" x2="80.0" y2="385.7" stroke="black"/><text x="72.0" y="389.7" text-anchor="end">40.0k</text><line x1="80.0" y1="385.7" x2="920.0" y2="385.7" stroke="#ededed"/><line x1="74.0" y1="333.5" x2="80.0" y2="333.5" stroke="black"/><text x="72.0" y="337.5" text-anchor="end">60.0k</text><line x1="80.0" y1="333.5" x2="920.0" y2="333.5" stroke="#ededed"/><line x1="74.0" y1="281.3" x2="80.0" y2="281.3" stroke="black"/><text x="72.0" y="285.3" text-anchor="end">80.0k</text><line x1="80.0" y1="281.3" x2="920.0" y2="281.3" stroke="#ededed"/><line x1="74.0" y1="229.1" x2="80.0" y2="229.1" stroke="black"/><text x="72.0" y="233.1" text-anchor="end">100.0k</text><line x1="80.0" y1="229.1" x2="920.0" y2="229.1" stroke="#ededed"/><line x1="74.0" y1="177.0" x2="80.0" y2="177.0" stroke="black"/><text x="72.0" y="181.0" text-anchor="end">120.0k</text><line x1="80.0" y1="177.0" x2="920.0" y2="177.0" stroke="#ededed"/><line x1="74.0" y1="124.8" x2="80.0" y2="124.8" stroke="black"/><text x="72.0" y="128.8" text-anchor="end">140.0k</text><line x1="80.0" y1="124.8" x2="920.0" y2="124.8" stroke="#ededed"/><line x1="74.0" y1="72.6" x2="80.0" y2="72.6" stroke="black"/><text x="72.0" y="76.6" text-anchor="end">160.0k</text><line x1="80.0" y1="72.6" x2="920.0" y2="72.6" stroke="#ededed"/><line x1="74.0" y1="20.5" x2="80.0" y2="20.5" stroke="black"/><text x="72.0" y="24.5" text-anchor="end">180.0k</text><line x1="80.0" y1="20.5" x2="920.0" y2="20.5" stroke="#ededed"/><polyline fill="none" stroke="#d62728" stroke-width="2" points="80.0,489.9 80.0,489.9 80.1,489.7 80.2,489.9 80.8,489.8 83.3,489.7 93.1,488.9 106.2,486.7 132.5,484.2 185.0,479.0 290.0,469.9 920.0,420.2 "/><circle cx="80.0" cy="489.9" r="3" fill="#d62728"/><circle cx="80.0" cy="489.9" r="3" fill="#d62728"/><circle cx="80.1" cy="489.7" r="3" fill="#d62728"/><circle cx="80.2" cy="489.9" r="3" fill="#d62728"/><circle cx="80.8" cy="489.8" r="3" fill="#d62728"/><circle cx="83.3" cy="489.7" r="3" fill="#d62728"/><circle cx="93.1" cy="488.9" r="3" fill="#d62728"/><circle cx="106.2" cy="486.7" r="3" fill="#d62728"/><circle cx="132.5" cy="484.2" r="3" fill="#d62728"/><circle cx="185.0" cy="479.0" r="3" fill="#d62728"/><circle cx="290.0" cy="469.9" r="3" fill="#d62728"/><circle cx="920.0" cy="420.2" r="3" fill="#d62728"/><polyline fill="none" stroke="#1f77b4" stroke-width="2" points="80.0,488.8 80.0,489.2 80.1,489.6 80.2,489.0 80.8,488.6 83.3,488.4 93.1,476.9 106.2,476.1 132.5,450.8 185.0,439.1 290.0,399.8 920.0,60.0 "/><circle cx="80.0" cy="488.8" r="3" fill="#1f77b4"/><circle cx="80.0" cy="489.2" r="3" fill="#1f77b4"/><circle cx="80.1" cy="489.6" r="3" fill="#1f77b4"/><circle cx="80.2" cy="489.0" r="3" fill="#1f77b4"/><circle cx="80.8" cy="488.6" r="3" fill="#1f77b4"/><circle cx="83.3" cy="488.4" r="3" fill="#1f77b4"/><circle cx="93.1" cy="476.9" r="3" fill="#1f77b4"/><circle cx="106.2" cy="476.1" r="3" fill="#1f77b4"/><circle cx="132.5" cy="450.8" r="3" fill="#1f77b4"/><circle cx="185.0" cy="439.1" r="3" fill="#1f77b4"/><circle cx="290.0" cy="399.8" r="3" fill="#1f77b4"/><circle cx="920.0" cy="60.0" r="3" fill="#1f77b4"/><rect x="770.0" y="70.0" width="140" height="54.0" fill="white" stroke="#ccc"/><line x1="780.0" y1="85.0" x2="800.0" y2="85.0" stroke="#d62728" stroke-width="3"/><text x="810.0" y="88.0">shm</text><line x1="780.0" y1="107.0" x2="800.0" y2="107.0" stroke="#1f77b4" stroke-width="3"/><text x="810.0" y="110.0">tcp</text></svg>