<svg xmlns="http://www.w3.org/2000/svg" width="960" height="560" viewBox="0 0 960 560"><style>text{font-family:Arial,sans-serif;font-size:12px;} .title{font-size:16px;font-weight:bold;}</style><rect width="100%" height="100%" fill="white"/><text x="480.0" y="30.0" class="title" text-anchor="middle">Streaming throughput</text><text x="480.0" y="540.0" text-anchor="middle">Payload size</text><text x="15" y="280.0" transform="rotate(-90 15,280.0)" text-anchor="middle">Throughput (MiB/s)</text><line x1="80.0" y1="490.0" x2="920.0" y2="490.0" stroke="black"/><line x1="80.0" y1="490.0" x2="80.0" y2="60.0" stroke="black"/><line x1="80.0" y1="490.0" x2="80.0" y2="496.0" stroke="black"/><text x="80.0" y="510.0" text-anchor="middle">0 B</text><line x1="80.0" y1="490.0" x2="80.0" y2="60.0" stroke="#dddddd"/><line x1="180.1" y1="490.0" x2="180.1" y2="496.0" stroke="black"/><text x="180.1" y="510.0" text-anchor="middle">1.9 MiB</text><line x1="180.1" y1="490.0" x2="180.1" y2="60.0" stroke="#dddddd"/><line x1="280.3" y1="490.0" x2="280.3" y2="496.0" stroke="black"/><text x="280.3" y="510.0" text-anchor="middle">3.8 MiB</text><line x1="280.3" y1="490.0" x2="280.3" y2="60.0" stroke="#dddddd"/><line x1="380.4" y1="490.0" x2="380.4" y2="496.0" stroke="black"/><text x="380.4" y="510.0" text-anchor="middle">5.7 MiB</text><line x1="380.4" y1="490.0" x2="380.4" y2="60.0" stroke="#dddddd"/><line x1="480.5" y1="490.0" x2="480.5" y2="496.0" stroke="black"/><text x="480.5" y="510.0" text-anchor="middle">7.6 MiB</text><line x1="480.5" y1="490.0" x2="480.5" y2="60.0" stroke="#dddddd"/><line x1="580.7" y1="490.0" x2="580.7" y2="496.0" stroke="black"/><text x="580.7" y="510.0" text-anchor="middle">9.5 MiB</text><line x1="580.7" y1="490.0" x2="580.7" y2="60.0" stroke="#dddddd"/><line x1="680.8" y1="490.0" x2="680.8" y2="496.0" stroke="black"/><text x="680.8" y="510.0" text-anchor="middle">11.4 MiB</text><line x1="680.8" y1="490.0" x2="680.8" y2="60.0" stroke="#dddddd"/><line x1="781.0" y1="490.0" x2="781.0" y2="496.0" stroke="black"/><text x="781.0" y="510.0" text-anchor="middle">13.4 MiB</text><line x1="781.0" y1="490.0" x2="781.0" y2="60.0" stroke="#dddddd"/><line x1="881.1" y1="490.0" x2="881.1" y2="496.0" stroke="black"/><text x="881.1" y="510.0" text-anchor="middle">15.3 MiB</text><line x1="881.1" y1="490.0" x2="881.1" y2="60.0" stroke="#dddddd"/><line x1="981.2" y1="490.0" x2="981.2" y2="496.0" stroke="black"/><text x="981.2" y="510.0" text-anchor="middle">17.2 MiB</text><line x1="981.2" y1="490.0" x2="981.2" y2="60.0" stroke="#dddddd"/><line x1="74.0" y1="490.0" x2="80.0" y2="490.0" stroke="black"/><text x="72.0" y="494.0" text-anchor="end">0.00</text><line x1="80.0" y1="490.0" x2="920.0" y2="490.0" stroke="#ededed"/><line x1="74.0" y1="418.1" x2="80.0" y2="418.1" stroke="black"/><text x="72.0" y="422.1" text-anchor="end">200</text><line x1="80.0" y1="418.1" x2="920.0" y2="418.1" stroke="#ededed"/><line x1="74.0" y1="346.2" x2="80.0" y2="346.2" stroke="black"/><text x="72.0" y="350.2" text-anchor="end">400</text><line x1="80.0" y1="346.2" x2="920.0" y2="346.2" stroke="#ededed"/><line x1="74.0" y1="274.3" x2="80.0" y2="274.3" stroke="black"/><text x="72.0" y="278.3" text-anchor="end">600</text><line x1="80.0" y1="274.3" x2="920.0" y2="274.3" stroke="#ededed"/><line x1="74.0" y1="202.4" x2="80.0" y2="202.4" stroke="black"/><text x="72.0" y="206.4" text-anchor="end">800</text><line x1="80.0" y1="202.4" x2="920.0" y2="202.4" stroke="#ededed"/><line x1="74.0" y1="130.4" x2="80.0" y2="130.4" stroke="black"/><text x="72.0" y="134.4" text-anchor="end">1.0k</text><line x1="80.0" y1="130.4" x2="920.0" y2="130.4" stroke="#ededed"/><line x1="74.0" y1="58.5" x2="80.0" y2="58.5" stroke="black"/><text x="72.0" y="62.5" text-anchor="end">1.2k</text><line x1="80.0" y1="58.5" x2="920.0" y2="58.5" stroke="#ededed"/><polyline fill="none" stroke="#d62728" stroke-width="2" points="80.0,490.0 80.0,490.0 80.1,484.0 80.2,432.2 80.8,362.8 83.3,99.7 93.1,79.0 106.2,203.2 132.5,164.4 185.0,148.4 290.0,117.6 920.0,60.0 "/><circle cx="80.0" cy="490.0" r="3" fill="#d62728"/><circle cx="80.0" cy="490.0" r="3" fill="#d62728"/><circle cx="80.1" cy="484.0" r="3" fill="#d62728"/><circle cx="80.2" cy="432.2" r="3" fill="#d62728"/><circle cx="80.8" cy="362.8" r="3" fill="#d62728"/><circle cx="83.3" cy="99.7" r="3" fill="#d62728"/><circle cx="93.1" cy="79.0" r="3" fill="#d62728"/><circle cx="106.2" cy="203.2" r="3" fill="#d62728"/><circle cx="132.5" cy="164.4" r="3" fill="#d62728"/><circle cx="185.0" cy="148.4" r="3" fill="#d62728"/><circle cx="290.0" cy="117.6" r="3" fill="#d62728"/><circle cx="920.0" cy="60.0" r="3" fill="#d62728"/><polyline fill="none" stroke="#1f77b4" stroke-width="2" points="80.0,490.0 80.0,490.0 80.1,485.1 80.2,482.4 80.8,468.9 83.3,415.3 93.1,454.3 106.2,422.3 132.5,442.2 185.0,416.3 290.0,406.8 920.0,420.2 "/><circle cx="80.0" cy="490.0" r="3" fill="#1f77b4"/><circle cx="80.0" cy="490.0" r="3" fill="#1f77b4"/><circle cx="80.1" cy="485.1" r="3" fill="#1f77b4"/><circle cx="80.2" cy="482.4" r="3" fill="#1f77b4"/><circle cx="80.8" cy="468.9" r="3" fill="#1f77b4"/><circle cx="83.3" cy="415.3" r="3" fill="#1f77b4"/><circle cx="93.1" cy="454.3" r="3" fill="#1f77b4"/><circle cx="106.2" cy="422.3" r="3" fill="#1f77b4"/><circle cx="132.5" cy="442.2" r="3" fill="#1f77b4"/><circle cx="185.0" cy="416.3" r="3" fill="#1f77b4"/><circle cx="290.0" cy="406.8" r="3" fill="#1f77b4"/><circle cx="920.0" cy="420.2" r="3" fill="#1f77b4"/><rect x="770.0" y="70.0" width="140" height="54.0" fill="white" stroke="#ccc"/><line x1="780.0" y1="85.0" x2="800.0" y2="85.0" stroke="#d62728" stroke-width="3"/><text x="810.0" y="88.0">shm</text><line x1="780.0" y1="107.0" x2="800.0" y2="107.0" stroke="#1f77b4" stroke-width="3"/><text x="810.0" y="110.0">tcp</text></svg>