<svg xmlns="http://www.w3.org/2000/svg" width="960" height="560" viewBox="0 0 960 560"><style>text{font-family:Arial,sans-serif;font-size:12px;} .title{font-size:16px;font-weight:bold;}</style><rect width="100%" height="100%" fill="white"/><text x="480.0" y="30.0" class="title" text-anchor="middle">Unary ping-pong latency</text><text x="480.0" y="540.0" text-anchor="middle">Payload size</text><text x="15" y="280.0" transform="rotate(-90 15,280.0)" text-anchor="middle">Avg latency (µs)</text><line x1="80.0" y1="490.0" x2="920.0" y2="490.0" stroke="black"/><line x1="80.0" y1="490.0" x2="80.0" y2="60.0" stroke="black"/><line x1="80.0" y1="490.0" x2="80.0" y2="496.0" stroke="black"/><text x="80.0" y="510.0" text-anchor="middle">0 B</text><line x1="80.0" y1="490.0" x2="80.0" y2="60.0" stroke="#dddddd"/><line x1="180.1" y1="490.0" x2="180.1" y2="496.0" stroke="black"/><text x="180.1" y="510.0" text-anchor="middle">1.9 MiB</text><line x1="180.1" y1="490.0" x2="180.1" y2="60.0" stroke="#dddddd"/><line x1="280.3" y1="490.0" x2="280.3" y2="496.0" stroke="black"/><text x="280.3" y="510.0" text-anchor="middle">3.8 MiB</text><line x1="280.3" y1="490.0" x2="280.3" y2="60.0" stroke="#dddddd"/><line x1="380.4" y1="490.0" x2="380.4" y2="496.0" stroke="black"/><text x="380.4" y="510.0" text-anchor="middle">5.7 MiB</text><line x1="380.4" y1="490.0" x2="380.4" y2="60.0" stroke="#dddddd"/><line x1="480.5" y1="490.0" x2="480.5" y2="496.0" stroke="black"/><text x="480.5" y="510.0" text-anchor="middle">7.6 MiB</text><line x1="480.5" y1="490.0" x2="480.5" y2="60.0" stroke="#dddddd"/><line x1="580.7" y1="490.0" x2="580.7" y2="496.0" stroke="black"/><text x="580.7" y="510.0" text-anchor="middle">9.5 MiB</text><line x1="580.7" y1="490.0" x2="580.7" y2="60.0" stroke="#dddddd"/><line x1="680.8" y1="490.0" x2="680.8" y2="496.0" stroke="black"/><text x="680.8" y="510.0" text-anchor="middle">11.4 MiB</text><line x1="680.8" y1="490.0" x2="680.8" y2="60.0" stroke="#dddddd"/><line x1="781.0" y1="490.0" x2="781.0" y2="496.0" stroke="black"/><text x="781.0" y="510.0" text-anchor="middle">13.4 MiB</text><line x1="781.0" y1="490.0" x2="781.0" y2="60.0" stroke="#dddddd"/><line x1="881.1" y1="490.0" x2="881.1" y2="496.0" stroke="black"/><text x="881.1" y="510.0" text-anchor="middle">15.3 MiB</text><line x1="881.1" y1="490.0" x2="881.1" y2="60.0" stroke="#dddddd"/><line x1="981.2" y1="490.0" x2="981.2" y2="496.0" stroke="black"/><text x="981.2" y="510.0" text-anchor="middle">17.2 MiB</text><line x1="981.2" y1="490.0" x2="981.2" y2="60.0" stroke="#dddddd"/><line x1="74.0" y1="490.0" x2="80.0" y2="490.0" stroke="black"/><text x="72.0" y="494.0" text-anchor="end">0.00</text><line x1="80.0" y1="490.0" x2="920.0" y2="490.0" stroke="#ededed"/><line x1="74.0" y1="383.9" x2="80.0" y2="383.9" stroke="black"/><text x="72.0" y="387.9" text-anchor="end">50.0k</text><line x1="80.0" y1="383.9" x2="920.0" y2="383.9" stroke="#ededed"/><line x1="74.0" y1="277.8" x2="80.0" y2="277.8" stroke="black"/><text x="72.0" y="281.8" text-anchor="end">100.0k</text><line x1="80.0" y1="277.8" x2="920.0" y2="277.8" stroke="#ededed"/><line x1="74.0" y1="171.8" x2="80.0" y2="171.8" stroke="black"/><text x="72.0" y="175.8" text-anchor="end">150.0k</text><line x1="80.0" y1="171.8" x2="920.0" y2="171.8" stroke="#ededed"/><line x1="74.0" y1="65.7" x2="80.0" y2="65.7" stroke="black"/><text x="72.0" y="69.7" text-anchor="end">200.0k</text><line x1="80.0" y1="65.7" x2="920.0" y2="65.7" stroke="#ededed"/><line x1="74.0" y1="-40.4" x2="80.0" y2="-40.4" stroke="black"/><text x="72.0" y="-36.4" text-anchor="end">250.0k</text><line x1="80.0" y1="-40.4" x2="920.0" y2="-40.4" stroke="#ededed"/><polyline fill="none" stroke="#d62728" stroke-width="2" points="80.0,489.8 80.0,489.9 80.1,489.8 80.2,489.8 80.8,489.6 83.3,488.9 93.1,487.1 106.2,487.6 132.5,488.4 185.0,485.1 290.0,475.0 920.0,414.5 "/><circle cx="80.0" cy="489.8" r="3" fill="#d62728"/><circle cx="80.0" cy="489.9" r="3" fill="#d62728"/><circle cx="80.1" cy="489.8" r="3" fill="#d62728"/><circle cx="80.2" cy="489.8" r="3" fill="#d62728"/><circle cx="80.8" cy="489.6" r="3" fill="#d62728"/><circle cx="83.3" cy="488.9" r="3" fill="#d62728"/><circle cx="93.1" cy="487.1" r="3" fill="#d62728"/><circle cx="106.2" cy="487.6" r="3" fill="#d62728"/><circle cx="132.5" cy="488.4" r="3" fill="#d62728"/><circle cx="185.0" cy="485.1" r="3" fill="#d62728"/><circle cx="290.0" cy="475.0" r="3" fill="#d62728"/><circle cx="920.0" cy="414.5" r="3" fill="#d62728"/><polyline fill="none" stroke="#1f77b4" stroke-width="2" points="80.0,489.5 80.0,489.6 80.1,489.7 80.2,489.6 80.8,489.6 83.3,488.8 93.1,478.2 106.2,472.4 132.5,473.1 185.0,450.9 290.0,377.4 920.0,60.0 "/><circle cx="80.0" cy="489.5" r="3" fill="#1f77b4"/><circle cx="80.0" cy="489.6" r="3" fill="#1f77b4"/><circle cx="80.1" cy="489.7" r="3" fill="#1f77b4"/><circle cx="80.2" cy="489.6" r="3" fill="#1f77b4"/><circle cx="80.8" cy="489.6" r="3" fill="#1f77b4"/><circle cx="83.3" cy="488.8" r="3" fill="#1f77b4"/><circle cx="93.1" cy="478.2" r="3" fill="#1f77b4"/><circle cx="106.2" cy="472.4" r="3" fill="#1f77b4"/><circle cx="132.5" cy="473.1" r="3" fill="#1f77b4"/><circle cx="185.0" cy="450.9" r="3" fill="#1f77b4"/><circle cx="290.0" cy="377.4" r="3" fill="#1f77b4"/><circle cx="920.0" cy="60.0" r="3" fill="#1f77b4"/><rect x="770.0" y="70.0" width="140" height="54.0" fill="white" stroke="#ccc"/><line x1="780.0" y1="85.0" x2="800.0" y2="85.0" stroke="#d62728" stroke-width="3"/><text x="810.0" y="88.0">shm</text><line x1="780.0" y1="107.0" x2="800.0" y2="107.0" stroke="#1f77b4" stroke-width="3"/><text x="810.0" y="110.0">tcp</text></svg>